<mxfile host="app.diagrams.net" modified="2023-04-28T10:26:32.320Z" agent="Mozilla/5.0 (Windows NT 10.0; Win64; x64) AppleWebKit/537.36 (KHTML, like Gecko) Chrome/112.0.0.0 Safari/537.36" etag="L8TPME9A9KjsmRokt8On" version="21.2.3" type="device">
  <diagram name="Page-1" id="AG5RR3GAvlvxQe6nCQUq">
    <mxGraphModel dx="5699" dy="2607" grid="1" gridSize="10" guides="1" tooltips="1" connect="1" arrows="1" fold="1" page="1" pageScale="1" pageWidth="827" pageHeight="1169" math="0" shadow="0">
      <root>
        <mxCell id="0" />
        <mxCell id="1" parent="0" />
        <mxCell id="lPbnV7JKpfbCIfiGn8R--153" value="Users" style="swimlane;fontStyle=1;align=center;verticalAlign=top;childLayout=stackLayout;horizontal=1;startSize=26;horizontalStack=0;resizeParent=1;resizeParentMax=0;resizeLast=0;collapsible=1;marginBottom=0;whiteSpace=wrap;html=1;" parent="1" vertex="1">
          <mxGeometry x="567" y="-185" width="260" height="476" as="geometry" />
        </mxCell>
        <mxCell id="lPbnV7JKpfbCIfiGn8R--154" value="-id:int" style="text;strokeColor=#B09500;fillColor=#e3c800;align=left;verticalAlign=top;spacingLeft=4;spacingRight=4;overflow=hidden;rotatable=0;points=[[0,0.5],[1,0.5]];portConstraint=eastwest;whiteSpace=wrap;html=1;fontColor=#000000;" parent="lPbnV7JKpfbCIfiGn8R--153" vertex="1">
          <mxGeometry y="26" width="260" height="26" as="geometry" />
        </mxCell>
        <mxCell id="lPbnV7JKpfbCIfiGn8R--157" value="-rule_id:int" style="text;strokeColor=#36393d;fillColor=#cce5ff;align=left;verticalAlign=top;spacingLeft=4;spacingRight=4;overflow=hidden;rotatable=0;points=[[0,0.5],[1,0.5]];portConstraint=eastwest;whiteSpace=wrap;html=1;" parent="lPbnV7JKpfbCIfiGn8R--153" vertex="1">
          <mxGeometry y="52" width="260" height="26" as="geometry" />
        </mxCell>
        <mxCell id="lPbnV7JKpfbCIfiGn8R--158" value="-token_id:int" style="text;strokeColor=#36393d;fillColor=#cce5ff;align=left;verticalAlign=top;spacingLeft=4;spacingRight=4;overflow=hidden;rotatable=0;points=[[0,0.5],[1,0.5]];portConstraint=eastwest;whiteSpace=wrap;html=1;" parent="lPbnV7JKpfbCIfiGn8R--153" vertex="1">
          <mxGeometry y="78" width="260" height="26" as="geometry" />
        </mxCell>
        <mxCell id="lPbnV7JKpfbCIfiGn8R--155" value="-name:string" style="text;align=left;verticalAlign=top;spacingLeft=4;spacingRight=4;overflow=hidden;rotatable=0;points=[[0,0.5],[1,0.5]];portConstraint=eastwest;whiteSpace=wrap;html=1;fillColor=#eeeeee;strokeColor=#36393d;" parent="lPbnV7JKpfbCIfiGn8R--153" vertex="1">
          <mxGeometry y="104" width="260" height="26" as="geometry" />
        </mxCell>
        <mxCell id="lPbnV7JKpfbCIfiGn8R--156" value="-email:string" style="text;strokeColor=#36393d;fillColor=#eeeeee;align=left;verticalAlign=top;spacingLeft=4;spacingRight=4;overflow=hidden;rotatable=0;points=[[0,0.5],[1,0.5]];portConstraint=eastwest;whiteSpace=wrap;html=1;" parent="lPbnV7JKpfbCIfiGn8R--153" vertex="1">
          <mxGeometry y="130" width="260" height="26" as="geometry" />
        </mxCell>
        <mxCell id="lPbnV7JKpfbCIfiGn8R--159" value="-email_verifiat_at:datetime" style="text;strokeColor=#36393d;fillColor=#eeeeee;align=left;verticalAlign=top;spacingLeft=4;spacingRight=4;overflow=hidden;rotatable=0;points=[[0,0.5],[1,0.5]];portConstraint=eastwest;whiteSpace=wrap;html=1;" parent="lPbnV7JKpfbCIfiGn8R--153" vertex="1">
          <mxGeometry y="156" width="260" height="26" as="geometry" />
        </mxCell>
        <mxCell id="lPbnV7JKpfbCIfiGn8R--160" value="-password:string" style="text;strokeColor=#36393d;fillColor=#eeeeee;align=left;verticalAlign=top;spacingLeft=4;spacingRight=4;overflow=hidden;rotatable=0;points=[[0,0.5],[1,0.5]];portConstraint=eastwest;whiteSpace=wrap;html=1;" parent="lPbnV7JKpfbCIfiGn8R--153" vertex="1">
          <mxGeometry y="182" width="260" height="26" as="geometry" />
        </mxCell>
        <mxCell id="lPbnV7JKpfbCIfiGn8R--161" value="" style="line;strokeWidth=1;fillColor=none;align=left;verticalAlign=middle;spacingTop=-1;spacingLeft=3;spacingRight=3;rotatable=0;labelPosition=right;points=[];portConstraint=eastwest;strokeColor=inherit;" parent="lPbnV7JKpfbCIfiGn8R--153" vertex="1">
          <mxGeometry y="208" width="260" height="8" as="geometry" />
        </mxCell>
        <mxCell id="lPbnV7JKpfbCIfiGn8R--162" value="+login()" style="text;strokeColor=#82b366;fillColor=#d5e8d4;align=left;verticalAlign=top;spacingLeft=4;spacingRight=4;overflow=hidden;rotatable=0;points=[[0,0.5],[1,0.5]];portConstraint=eastwest;whiteSpace=wrap;html=1;" parent="lPbnV7JKpfbCIfiGn8R--153" vertex="1">
          <mxGeometry y="216" width="260" height="26" as="geometry" />
        </mxCell>
        <mxCell id="lPbnV7JKpfbCIfiGn8R--163" value="+register()" style="text;strokeColor=#82b366;fillColor=#d5e8d4;align=left;verticalAlign=top;spacingLeft=4;spacingRight=4;overflow=hidden;rotatable=0;points=[[0,0.5],[1,0.5]];portConstraint=eastwest;whiteSpace=wrap;html=1;" parent="lPbnV7JKpfbCIfiGn8R--153" vertex="1">
          <mxGeometry y="242" width="260" height="26" as="geometry" />
        </mxCell>
        <mxCell id="lPbnV7JKpfbCIfiGn8R--164" value="+logout()" style="text;strokeColor=#82b366;fillColor=#d5e8d4;align=left;verticalAlign=top;spacingLeft=4;spacingRight=4;overflow=hidden;rotatable=0;points=[[0,0.5],[1,0.5]];portConstraint=eastwest;whiteSpace=wrap;html=1;" parent="lPbnV7JKpfbCIfiGn8R--153" vertex="1">
          <mxGeometry y="268" width="260" height="26" as="geometry" />
        </mxCell>
        <mxCell id="lPbnV7JKpfbCIfiGn8R--165" value="+updateProfile()" style="text;strokeColor=#82b366;fillColor=#d5e8d4;align=left;verticalAlign=top;spacingLeft=4;spacingRight=4;overflow=hidden;rotatable=0;points=[[0,0.5],[1,0.5]];portConstraint=eastwest;whiteSpace=wrap;html=1;" parent="lPbnV7JKpfbCIfiGn8R--153" vertex="1">
          <mxGeometry y="294" width="260" height="26" as="geometry" />
        </mxCell>
        <mxCell id="lPbnV7JKpfbCIfiGn8R--166" value="+getProfile()" style="text;strokeColor=#82b366;fillColor=#d5e8d4;align=left;verticalAlign=top;spacingLeft=4;spacingRight=4;overflow=hidden;rotatable=0;points=[[0,0.5],[1,0.5]];portConstraint=eastwest;whiteSpace=wrap;html=1;" parent="lPbnV7JKpfbCIfiGn8R--153" vertex="1">
          <mxGeometry y="320" width="260" height="26" as="geometry" />
        </mxCell>
        <mxCell id="lPbnV7JKpfbCIfiGn8R--167" value="+deleteProfile()" style="text;strokeColor=#82b366;fillColor=#d5e8d4;align=left;verticalAlign=top;spacingLeft=4;spacingRight=4;overflow=hidden;rotatable=0;points=[[0,0.5],[1,0.5]];portConstraint=eastwest;whiteSpace=wrap;html=1;" parent="lPbnV7JKpfbCIfiGn8R--153" vertex="1">
          <mxGeometry y="346" width="260" height="26" as="geometry" />
        </mxCell>
        <mxCell id="lPbnV7JKpfbCIfiGn8R--168" value="+ method(type): type" style="text;strokeColor=#82b366;fillColor=#d5e8d4;align=left;verticalAlign=top;spacingLeft=4;spacingRight=4;overflow=hidden;rotatable=0;points=[[0,0.5],[1,0.5]];portConstraint=eastwest;whiteSpace=wrap;html=1;" parent="lPbnV7JKpfbCIfiGn8R--153" vertex="1">
          <mxGeometry y="372" width="260" height="26" as="geometry" />
        </mxCell>
        <mxCell id="lPbnV7JKpfbCIfiGn8R--169" value="+ method(type): type" style="text;strokeColor=#82b366;fillColor=#d5e8d4;align=left;verticalAlign=top;spacingLeft=4;spacingRight=4;overflow=hidden;rotatable=0;points=[[0,0.5],[1,0.5]];portConstraint=eastwest;whiteSpace=wrap;html=1;" parent="lPbnV7JKpfbCIfiGn8R--153" vertex="1">
          <mxGeometry y="398" width="260" height="26" as="geometry" />
        </mxCell>
        <mxCell id="lPbnV7JKpfbCIfiGn8R--170" value="+ method(type): type" style="text;strokeColor=#82b366;fillColor=#d5e8d4;align=left;verticalAlign=top;spacingLeft=4;spacingRight=4;overflow=hidden;rotatable=0;points=[[0,0.5],[1,0.5]];portConstraint=eastwest;whiteSpace=wrap;html=1;" parent="lPbnV7JKpfbCIfiGn8R--153" vertex="1">
          <mxGeometry y="424" width="260" height="26" as="geometry" />
        </mxCell>
        <mxCell id="lPbnV7JKpfbCIfiGn8R--171" value="+ method(type): type" style="text;strokeColor=#82b366;fillColor=#d5e8d4;align=left;verticalAlign=top;spacingLeft=4;spacingRight=4;overflow=hidden;rotatable=0;points=[[0,0.5],[1,0.5]];portConstraint=eastwest;whiteSpace=wrap;html=1;" parent="lPbnV7JKpfbCIfiGn8R--153" vertex="1">
          <mxGeometry y="450" width="260" height="26" as="geometry" />
        </mxCell>
        <mxCell id="ouK6QzMCspJjK9I2fayr-5" value="Feedbacks" style="swimlane;fontStyle=1;align=center;verticalAlign=top;childLayout=stackLayout;horizontal=1;startSize=26;horizontalStack=0;resizeParent=1;resizeParentMax=0;resizeLast=0;collapsible=1;marginBottom=0;whiteSpace=wrap;html=1;" parent="1" vertex="1">
          <mxGeometry x="170" y="610" width="260" height="372" as="geometry" />
        </mxCell>
        <mxCell id="ouK6QzMCspJjK9I2fayr-6" value="-id: int" style="text;strokeColor=#B09500;fillColor=#e3c800;align=left;verticalAlign=top;spacingLeft=4;spacingRight=4;overflow=hidden;rotatable=0;points=[[0,0.5],[1,0.5]];portConstraint=eastwest;whiteSpace=wrap;html=1;fontColor=#000000;" parent="ouK6QzMCspJjK9I2fayr-5" vertex="1">
          <mxGeometry y="26" width="260" height="26" as="geometry" />
        </mxCell>
        <mxCell id="ouK6QzMCspJjK9I2fayr-8" value="-user_id:int" style="text;strokeColor=#36393d;fillColor=#cce5ff;align=left;verticalAlign=top;spacingLeft=4;spacingRight=4;overflow=hidden;rotatable=0;points=[[0,0.5],[1,0.5]];portConstraint=eastwest;whiteSpace=wrap;html=1;" parent="ouK6QzMCspJjK9I2fayr-5" vertex="1">
          <mxGeometry y="52" width="260" height="26" as="geometry" />
        </mxCell>
        <mxCell id="ouK6QzMCspJjK9I2fayr-9" value="-menu_id:int" style="text;strokeColor=#36393d;fillColor=#cce5ff;align=left;verticalAlign=top;spacingLeft=4;spacingRight=4;overflow=hidden;rotatable=0;points=[[0,0.5],[1,0.5]];portConstraint=eastwest;whiteSpace=wrap;html=1;" parent="ouK6QzMCspJjK9I2fayr-5" vertex="1">
          <mxGeometry y="78" width="260" height="26" as="geometry" />
        </mxCell>
        <mxCell id="ouK6QzMCspJjK9I2fayr-7" value="-body:int" style="text;strokeColor=#36393d;fillColor=#eeeeee;align=left;verticalAlign=top;spacingLeft=4;spacingRight=4;overflow=hidden;rotatable=0;points=[[0,0.5],[1,0.5]];portConstraint=eastwest;whiteSpace=wrap;html=1;" parent="ouK6QzMCspJjK9I2fayr-5" vertex="1">
          <mxGeometry y="104" width="260" height="26" as="geometry" />
        </mxCell>
        <mxCell id="ouK6QzMCspJjK9I2fayr-13" value="" style="line;strokeWidth=1;fillColor=none;align=left;verticalAlign=middle;spacingTop=-1;spacingLeft=3;spacingRight=3;rotatable=0;labelPosition=right;points=[];portConstraint=eastwest;strokeColor=inherit;" parent="ouK6QzMCspJjK9I2fayr-5" vertex="1">
          <mxGeometry y="130" width="260" height="8" as="geometry" />
        </mxCell>
        <mxCell id="ouK6QzMCspJjK9I2fayr-14" value="+all()" style="text;strokeColor=#82b366;fillColor=#d5e8d4;align=left;verticalAlign=top;spacingLeft=4;spacingRight=4;overflow=hidden;rotatable=0;points=[[0,0.5],[1,0.5]];portConstraint=eastwest;whiteSpace=wrap;html=1;" parent="ouK6QzMCspJjK9I2fayr-5" vertex="1">
          <mxGeometry y="138" width="260" height="26" as="geometry" />
        </mxCell>
        <mxCell id="ouK6QzMCspJjK9I2fayr-15" value="+show(key)" style="text;strokeColor=#82b366;fillColor=#d5e8d4;align=left;verticalAlign=top;spacingLeft=4;spacingRight=4;overflow=hidden;rotatable=0;points=[[0,0.5],[1,0.5]];portConstraint=eastwest;whiteSpace=wrap;html=1;" parent="ouK6QzMCspJjK9I2fayr-5" vertex="1">
          <mxGeometry y="164" width="260" height="26" as="geometry" />
        </mxCell>
        <mxCell id="ouK6QzMCspJjK9I2fayr-16" value="+clear()" style="text;strokeColor=#82b366;fillColor=#d5e8d4;align=left;verticalAlign=top;spacingLeft=4;spacingRight=4;overflow=hidden;rotatable=0;points=[[0,0.5],[1,0.5]];portConstraint=eastwest;whiteSpace=wrap;html=1;" parent="ouK6QzMCspJjK9I2fayr-5" vertex="1">
          <mxGeometry y="190" width="260" height="26" as="geometry" />
        </mxCell>
        <mxCell id="ouK6QzMCspJjK9I2fayr-17" value="+store(data)" style="text;strokeColor=#82b366;fillColor=#d5e8d4;align=left;verticalAlign=top;spacingLeft=4;spacingRight=4;overflow=hidden;rotatable=0;points=[[0,0.5],[1,0.5]];portConstraint=eastwest;whiteSpace=wrap;html=1;" parent="ouK6QzMCspJjK9I2fayr-5" vertex="1">
          <mxGeometry y="216" width="260" height="26" as="geometry" />
        </mxCell>
        <mxCell id="ouK6QzMCspJjK9I2fayr-18" value="+destroy(id)" style="text;strokeColor=#82b366;fillColor=#d5e8d4;align=left;verticalAlign=top;spacingLeft=4;spacingRight=4;overflow=hidden;rotatable=0;points=[[0,0.5],[1,0.5]];portConstraint=eastwest;whiteSpace=wrap;html=1;" parent="ouK6QzMCspJjK9I2fayr-5" vertex="1">
          <mxGeometry y="242" width="260" height="26" as="geometry" />
        </mxCell>
        <mxCell id="ouK6QzMCspJjK9I2fayr-19" value="+update(id , data)" style="text;strokeColor=#82b366;fillColor=#d5e8d4;align=left;verticalAlign=top;spacingLeft=4;spacingRight=4;overflow=hidden;rotatable=0;points=[[0,0.5],[1,0.5]];portConstraint=eastwest;whiteSpace=wrap;html=1;" parent="ouK6QzMCspJjK9I2fayr-5" vertex="1">
          <mxGeometry y="268" width="260" height="26" as="geometry" />
        </mxCell>
        <mxCell id="ouK6QzMCspJjK9I2fayr-20" value="+listByUser(user_id)" style="text;strokeColor=#82b366;fillColor=#d5e8d4;align=left;verticalAlign=top;spacingLeft=4;spacingRight=4;overflow=hidden;rotatable=0;points=[[0,0.5],[1,0.5]];portConstraint=eastwest;whiteSpace=wrap;html=1;" parent="ouK6QzMCspJjK9I2fayr-5" vertex="1">
          <mxGeometry y="294" width="260" height="26" as="geometry" />
        </mxCell>
        <mxCell id="ouK6QzMCspJjK9I2fayr-21" value="+listByMenu(menu_id)" style="text;strokeColor=#82b366;fillColor=#d5e8d4;align=left;verticalAlign=top;spacingLeft=4;spacingRight=4;overflow=hidden;rotatable=0;points=[[0,0.5],[1,0.5]];portConstraint=eastwest;whiteSpace=wrap;html=1;" parent="ouK6QzMCspJjK9I2fayr-5" vertex="1">
          <mxGeometry y="320" width="260" height="26" as="geometry" />
        </mxCell>
        <mxCell id="ouK6QzMCspJjK9I2fayr-22" value="+listByUserAndMenu(user_id , menu_id)" style="text;strokeColor=#82b366;fillColor=#d5e8d4;align=left;verticalAlign=top;spacingLeft=4;spacingRight=4;overflow=hidden;rotatable=0;points=[[0,0.5],[1,0.5]];portConstraint=eastwest;whiteSpace=wrap;html=1;" parent="ouK6QzMCspJjK9I2fayr-5" vertex="1">
          <mxGeometry y="346" width="260" height="26" as="geometry" />
        </mxCell>
        <mxCell id="ouK6QzMCspJjK9I2fayr-25" value="key : string have id&lt;br&gt;platform : operating system" style="rounded=0;whiteSpace=wrap;html=1;fillColor=#f8cecc;strokeColor=#b85450;align=left;horizontal=1;verticalAlign=top;fontStyle=1" parent="1" vertex="1">
          <mxGeometry x="-2210" y="-700" width="880" height="80" as="geometry" />
        </mxCell>
        <mxCell id="ouK6QzMCspJjK9I2fayr-26" value="Comments" style="swimlane;fontStyle=1;align=center;verticalAlign=top;childLayout=stackLayout;horizontal=1;startSize=26;horizontalStack=0;resizeParent=1;resizeParentMax=0;resizeLast=0;collapsible=1;marginBottom=0;whiteSpace=wrap;html=1;" parent="1" vertex="1">
          <mxGeometry x="170" y="200" width="260" height="372" as="geometry" />
        </mxCell>
        <mxCell id="ouK6QzMCspJjK9I2fayr-27" value="-id: int" style="text;strokeColor=#B09500;fillColor=#e3c800;align=left;verticalAlign=top;spacingLeft=4;spacingRight=4;overflow=hidden;rotatable=0;points=[[0,0.5],[1,0.5]];portConstraint=eastwest;whiteSpace=wrap;html=1;fontColor=#000000;" parent="ouK6QzMCspJjK9I2fayr-26" vertex="1">
          <mxGeometry y="26" width="260" height="26" as="geometry" />
        </mxCell>
        <mxCell id="ouK6QzMCspJjK9I2fayr-28" value="-user_id:int" style="text;strokeColor=#36393d;fillColor=#cce5ff;align=left;verticalAlign=top;spacingLeft=4;spacingRight=4;overflow=hidden;rotatable=0;points=[[0,0.5],[1,0.5]];portConstraint=eastwest;whiteSpace=wrap;html=1;" parent="ouK6QzMCspJjK9I2fayr-26" vertex="1">
          <mxGeometry y="52" width="260" height="26" as="geometry" />
        </mxCell>
        <mxCell id="ouK6QzMCspJjK9I2fayr-29" value="-menu_id:int" style="text;strokeColor=#36393d;fillColor=#cce5ff;align=left;verticalAlign=top;spacingLeft=4;spacingRight=4;overflow=hidden;rotatable=0;points=[[0,0.5],[1,0.5]];portConstraint=eastwest;whiteSpace=wrap;html=1;" parent="ouK6QzMCspJjK9I2fayr-26" vertex="1">
          <mxGeometry y="78" width="260" height="26" as="geometry" />
        </mxCell>
        <mxCell id="ouK6QzMCspJjK9I2fayr-30" value="-body:int" style="text;strokeColor=#36393d;fillColor=#eeeeee;align=left;verticalAlign=top;spacingLeft=4;spacingRight=4;overflow=hidden;rotatable=0;points=[[0,0.5],[1,0.5]];portConstraint=eastwest;whiteSpace=wrap;html=1;" parent="ouK6QzMCspJjK9I2fayr-26" vertex="1">
          <mxGeometry y="104" width="260" height="26" as="geometry" />
        </mxCell>
        <mxCell id="ouK6QzMCspJjK9I2fayr-31" value="" style="line;strokeWidth=1;fillColor=none;align=left;verticalAlign=middle;spacingTop=-1;spacingLeft=3;spacingRight=3;rotatable=0;labelPosition=right;points=[];portConstraint=eastwest;strokeColor=inherit;" parent="ouK6QzMCspJjK9I2fayr-26" vertex="1">
          <mxGeometry y="130" width="260" height="8" as="geometry" />
        </mxCell>
        <mxCell id="ouK6QzMCspJjK9I2fayr-32" value="+all()" style="text;strokeColor=#82b366;fillColor=#d5e8d4;align=left;verticalAlign=top;spacingLeft=4;spacingRight=4;overflow=hidden;rotatable=0;points=[[0,0.5],[1,0.5]];portConstraint=eastwest;whiteSpace=wrap;html=1;" parent="ouK6QzMCspJjK9I2fayr-26" vertex="1">
          <mxGeometry y="138" width="260" height="26" as="geometry" />
        </mxCell>
        <mxCell id="ouK6QzMCspJjK9I2fayr-33" value="+show(key)" style="text;strokeColor=#82b366;fillColor=#d5e8d4;align=left;verticalAlign=top;spacingLeft=4;spacingRight=4;overflow=hidden;rotatable=0;points=[[0,0.5],[1,0.5]];portConstraint=eastwest;whiteSpace=wrap;html=1;" parent="ouK6QzMCspJjK9I2fayr-26" vertex="1">
          <mxGeometry y="164" width="260" height="26" as="geometry" />
        </mxCell>
        <mxCell id="ouK6QzMCspJjK9I2fayr-34" value="+clear()" style="text;strokeColor=#82b366;fillColor=#d5e8d4;align=left;verticalAlign=top;spacingLeft=4;spacingRight=4;overflow=hidden;rotatable=0;points=[[0,0.5],[1,0.5]];portConstraint=eastwest;whiteSpace=wrap;html=1;" parent="ouK6QzMCspJjK9I2fayr-26" vertex="1">
          <mxGeometry y="190" width="260" height="26" as="geometry" />
        </mxCell>
        <mxCell id="ouK6QzMCspJjK9I2fayr-35" value="+store(data)" style="text;strokeColor=#82b366;fillColor=#d5e8d4;align=left;verticalAlign=top;spacingLeft=4;spacingRight=4;overflow=hidden;rotatable=0;points=[[0,0.5],[1,0.5]];portConstraint=eastwest;whiteSpace=wrap;html=1;" parent="ouK6QzMCspJjK9I2fayr-26" vertex="1">
          <mxGeometry y="216" width="260" height="26" as="geometry" />
        </mxCell>
        <mxCell id="ouK6QzMCspJjK9I2fayr-36" value="+destroy(id)" style="text;strokeColor=#82b366;fillColor=#d5e8d4;align=left;verticalAlign=top;spacingLeft=4;spacingRight=4;overflow=hidden;rotatable=0;points=[[0,0.5],[1,0.5]];portConstraint=eastwest;whiteSpace=wrap;html=1;" parent="ouK6QzMCspJjK9I2fayr-26" vertex="1">
          <mxGeometry y="242" width="260" height="26" as="geometry" />
        </mxCell>
        <mxCell id="ouK6QzMCspJjK9I2fayr-37" value="+update(id , data)" style="text;strokeColor=#82b366;fillColor=#d5e8d4;align=left;verticalAlign=top;spacingLeft=4;spacingRight=4;overflow=hidden;rotatable=0;points=[[0,0.5],[1,0.5]];portConstraint=eastwest;whiteSpace=wrap;html=1;" parent="ouK6QzMCspJjK9I2fayr-26" vertex="1">
          <mxGeometry y="268" width="260" height="26" as="geometry" />
        </mxCell>
        <mxCell id="ouK6QzMCspJjK9I2fayr-38" value="+listByUser(user_id)" style="text;strokeColor=#82b366;fillColor=#d5e8d4;align=left;verticalAlign=top;spacingLeft=4;spacingRight=4;overflow=hidden;rotatable=0;points=[[0,0.5],[1,0.5]];portConstraint=eastwest;whiteSpace=wrap;html=1;" parent="ouK6QzMCspJjK9I2fayr-26" vertex="1">
          <mxGeometry y="294" width="260" height="26" as="geometry" />
        </mxCell>
        <mxCell id="ouK6QzMCspJjK9I2fayr-39" value="+listByMenu(menu_id)" style="text;strokeColor=#82b366;fillColor=#d5e8d4;align=left;verticalAlign=top;spacingLeft=4;spacingRight=4;overflow=hidden;rotatable=0;points=[[0,0.5],[1,0.5]];portConstraint=eastwest;whiteSpace=wrap;html=1;" parent="ouK6QzMCspJjK9I2fayr-26" vertex="1">
          <mxGeometry y="320" width="260" height="26" as="geometry" />
        </mxCell>
        <mxCell id="ouK6QzMCspJjK9I2fayr-40" value="+listByUserAndMenu(user_id , menu_id)" style="text;strokeColor=#82b366;fillColor=#d5e8d4;align=left;verticalAlign=top;spacingLeft=4;spacingRight=4;overflow=hidden;rotatable=0;points=[[0,0.5],[1,0.5]];portConstraint=eastwest;whiteSpace=wrap;html=1;" parent="ouK6QzMCspJjK9I2fayr-26" vertex="1">
          <mxGeometry y="346" width="260" height="26" as="geometry" />
        </mxCell>
        <mxCell id="ouK6QzMCspJjK9I2fayr-41" value="Menus" style="swimlane;fontStyle=1;align=center;verticalAlign=top;childLayout=stackLayout;horizontal=1;startSize=26;horizontalStack=0;resizeParent=1;resizeParentMax=0;resizeLast=0;collapsible=1;marginBottom=0;whiteSpace=wrap;html=1;" parent="1" vertex="1">
          <mxGeometry x="-280" y="-391" width="260" height="424" as="geometry" />
        </mxCell>
        <mxCell id="ouK6QzMCspJjK9I2fayr-42" value="-id: int" style="text;strokeColor=#B09500;fillColor=#e3c800;align=left;verticalAlign=top;spacingLeft=4;spacingRight=4;overflow=hidden;rotatable=0;points=[[0,0.5],[1,0.5]];portConstraint=eastwest;whiteSpace=wrap;html=1;fontColor=#000000;" parent="ouK6QzMCspJjK9I2fayr-41" vertex="1">
          <mxGeometry y="26" width="260" height="26" as="geometry" />
        </mxCell>
        <mxCell id="ouK6QzMCspJjK9I2fayr-43" value="-user_id:int" style="text;strokeColor=#36393d;fillColor=#cce5ff;align=left;verticalAlign=top;spacingLeft=4;spacingRight=4;overflow=hidden;rotatable=0;points=[[0,0.5],[1,0.5]];portConstraint=eastwest;whiteSpace=wrap;html=1;" parent="ouK6QzMCspJjK9I2fayr-41" vertex="1">
          <mxGeometry y="52" width="260" height="26" as="geometry" />
        </mxCell>
        <mxCell id="ouK6QzMCspJjK9I2fayr-56" value="-name:string" style="text;strokeColor=#36393d;fillColor=#eeeeee;align=left;verticalAlign=top;spacingLeft=4;spacingRight=4;overflow=hidden;rotatable=0;points=[[0,0.5],[1,0.5]];portConstraint=eastwest;whiteSpace=wrap;html=1;" parent="ouK6QzMCspJjK9I2fayr-41" vertex="1">
          <mxGeometry y="78" width="260" height="26" as="geometry" />
        </mxCell>
        <mxCell id="ouK6QzMCspJjK9I2fayr-57" value="-date : date" style="text;strokeColor=#36393d;fillColor=#eeeeee;align=left;verticalAlign=top;spacingLeft=4;spacingRight=4;overflow=hidden;rotatable=0;points=[[0,0.5],[1,0.5]];portConstraint=eastwest;whiteSpace=wrap;html=1;" parent="ouK6QzMCspJjK9I2fayr-41" vertex="1">
          <mxGeometry y="104" width="260" height="26" as="geometry" />
        </mxCell>
        <mxCell id="ouK6QzMCspJjK9I2fayr-75" value="-description" style="text;strokeColor=#36393d;fillColor=#eeeeee;align=left;verticalAlign=top;spacingLeft=4;spacingRight=4;overflow=hidden;rotatable=0;points=[[0,0.5],[1,0.5]];portConstraint=eastwest;whiteSpace=wrap;html=1;" parent="ouK6QzMCspJjK9I2fayr-41" vertex="1">
          <mxGeometry y="130" width="260" height="26" as="geometry" />
        </mxCell>
        <mxCell id="ouK6QzMCspJjK9I2fayr-77" value="-quantity:int" style="text;strokeColor=#36393d;fillColor=#eeeeee;align=left;verticalAlign=top;spacingLeft=4;spacingRight=4;overflow=hidden;rotatable=0;points=[[0,0.5],[1,0.5]];portConstraint=eastwest;whiteSpace=wrap;html=1;" parent="ouK6QzMCspJjK9I2fayr-41" vertex="1">
          <mxGeometry y="156" width="260" height="26" as="geometry" />
        </mxCell>
        <mxCell id="ouK6QzMCspJjK9I2fayr-76" value="-image:string" style="text;strokeColor=#36393d;fillColor=#eeeeee;align=left;verticalAlign=top;spacingLeft=4;spacingRight=4;overflow=hidden;rotatable=0;points=[[0,0.5],[1,0.5]];portConstraint=eastwest;whiteSpace=wrap;html=1;" parent="ouK6QzMCspJjK9I2fayr-41" vertex="1">
          <mxGeometry y="182" width="260" height="26" as="geometry" />
        </mxCell>
        <mxCell id="ouK6QzMCspJjK9I2fayr-46" value="" style="line;strokeWidth=1;fillColor=none;align=left;verticalAlign=middle;spacingTop=-1;spacingLeft=3;spacingRight=3;rotatable=0;labelPosition=right;points=[];portConstraint=eastwest;strokeColor=inherit;" parent="ouK6QzMCspJjK9I2fayr-41" vertex="1">
          <mxGeometry y="208" width="260" height="8" as="geometry" />
        </mxCell>
        <mxCell id="ouK6QzMCspJjK9I2fayr-47" value="+all()" style="text;strokeColor=#82b366;fillColor=#d5e8d4;align=left;verticalAlign=top;spacingLeft=4;spacingRight=4;overflow=hidden;rotatable=0;points=[[0,0.5],[1,0.5]];portConstraint=eastwest;whiteSpace=wrap;html=1;" parent="ouK6QzMCspJjK9I2fayr-41" vertex="1">
          <mxGeometry y="216" width="260" height="26" as="geometry" />
        </mxCell>
        <mxCell id="ouK6QzMCspJjK9I2fayr-48" value="+show(key)" style="text;strokeColor=#82b366;fillColor=#d5e8d4;align=left;verticalAlign=top;spacingLeft=4;spacingRight=4;overflow=hidden;rotatable=0;points=[[0,0.5],[1,0.5]];portConstraint=eastwest;whiteSpace=wrap;html=1;" parent="ouK6QzMCspJjK9I2fayr-41" vertex="1">
          <mxGeometry y="242" width="260" height="26" as="geometry" />
        </mxCell>
        <mxCell id="ouK6QzMCspJjK9I2fayr-49" value="+clear()" style="text;strokeColor=#82b366;fillColor=#d5e8d4;align=left;verticalAlign=top;spacingLeft=4;spacingRight=4;overflow=hidden;rotatable=0;points=[[0,0.5],[1,0.5]];portConstraint=eastwest;whiteSpace=wrap;html=1;" parent="ouK6QzMCspJjK9I2fayr-41" vertex="1">
          <mxGeometry y="268" width="260" height="26" as="geometry" />
        </mxCell>
        <mxCell id="ouK6QzMCspJjK9I2fayr-50" value="+store(data)" style="text;strokeColor=#82b366;fillColor=#d5e8d4;align=left;verticalAlign=top;spacingLeft=4;spacingRight=4;overflow=hidden;rotatable=0;points=[[0,0.5],[1,0.5]];portConstraint=eastwest;whiteSpace=wrap;html=1;" parent="ouK6QzMCspJjK9I2fayr-41" vertex="1">
          <mxGeometry y="294" width="260" height="26" as="geometry" />
        </mxCell>
        <mxCell id="ouK6QzMCspJjK9I2fayr-51" value="+destroy(id)" style="text;strokeColor=#82b366;fillColor=#d5e8d4;align=left;verticalAlign=top;spacingLeft=4;spacingRight=4;overflow=hidden;rotatable=0;points=[[0,0.5],[1,0.5]];portConstraint=eastwest;whiteSpace=wrap;html=1;" parent="ouK6QzMCspJjK9I2fayr-41" vertex="1">
          <mxGeometry y="320" width="260" height="26" as="geometry" />
        </mxCell>
        <mxCell id="ouK6QzMCspJjK9I2fayr-52" value="+update(id , data)" style="text;strokeColor=#82b366;fillColor=#d5e8d4;align=left;verticalAlign=top;spacingLeft=4;spacingRight=4;overflow=hidden;rotatable=0;points=[[0,0.5],[1,0.5]];portConstraint=eastwest;whiteSpace=wrap;html=1;" parent="ouK6QzMCspJjK9I2fayr-41" vertex="1">
          <mxGeometry y="346" width="260" height="26" as="geometry" />
        </mxCell>
        <mxCell id="ouK6QzMCspJjK9I2fayr-53" value="+listByUser(user_id)" style="text;strokeColor=#82b366;fillColor=#d5e8d4;align=left;verticalAlign=top;spacingLeft=4;spacingRight=4;overflow=hidden;rotatable=0;points=[[0,0.5],[1,0.5]];portConstraint=eastwest;whiteSpace=wrap;html=1;" parent="ouK6QzMCspJjK9I2fayr-41" vertex="1">
          <mxGeometry y="372" width="260" height="26" as="geometry" />
        </mxCell>
        <mxCell id="ouK6QzMCspJjK9I2fayr-96" value="+showToday()" style="text;strokeColor=#82b366;fillColor=#d5e8d4;align=left;verticalAlign=top;spacingLeft=4;spacingRight=4;overflow=hidden;rotatable=0;points=[[0,0.5],[1,0.5]];portConstraint=eastwest;whiteSpace=wrap;html=1;" parent="ouK6QzMCspJjK9I2fayr-41" vertex="1">
          <mxGeometry y="398" width="260" height="26" as="geometry" />
        </mxCell>
        <mxCell id="ouK6QzMCspJjK9I2fayr-78" value="Meals" style="swimlane;fontStyle=1;align=center;verticalAlign=top;childLayout=stackLayout;horizontal=1;startSize=26;horizontalStack=0;resizeParent=1;resizeParentMax=0;resizeLast=0;collapsible=1;marginBottom=0;whiteSpace=wrap;html=1;" parent="1" vertex="1">
          <mxGeometry x="-1090" y="-20" width="220" height="476" as="geometry" />
        </mxCell>
        <mxCell id="ouK6QzMCspJjK9I2fayr-79" value="-id: int" style="text;strokeColor=#B09500;fillColor=#e3c800;align=left;verticalAlign=top;spacingLeft=4;spacingRight=4;overflow=hidden;rotatable=0;points=[[0,0.5],[1,0.5]];portConstraint=eastwest;whiteSpace=wrap;html=1;fontColor=#000000;" parent="ouK6QzMCspJjK9I2fayr-78" vertex="1">
          <mxGeometry y="26" width="220" height="26" as="geometry" />
        </mxCell>
        <mxCell id="ouK6QzMCspJjK9I2fayr-80" value="-user_id:int" style="text;strokeColor=#36393d;fillColor=#cce5ff;align=left;verticalAlign=top;spacingLeft=4;spacingRight=4;overflow=hidden;rotatable=0;points=[[0,0.5],[1,0.5]];portConstraint=eastwest;whiteSpace=wrap;html=1;" parent="ouK6QzMCspJjK9I2fayr-78" vertex="1">
          <mxGeometry y="52" width="220" height="26" as="geometry" />
        </mxCell>
        <mxCell id="ouK6QzMCspJjK9I2fayr-82" value="-date : date" style="text;strokeColor=#36393d;fillColor=#eeeeee;align=left;verticalAlign=top;spacingLeft=4;spacingRight=4;overflow=hidden;rotatable=0;points=[[0,0.5],[1,0.5]];portConstraint=eastwest;whiteSpace=wrap;html=1;" parent="ouK6QzMCspJjK9I2fayr-78" vertex="1">
          <mxGeometry y="78" width="220" height="26" as="geometry" />
        </mxCell>
        <mxCell id="ouK6QzMCspJjK9I2fayr-95" value="-category_id:int" style="text;strokeColor=#36393d;fillColor=#cce5ff;align=left;verticalAlign=top;spacingLeft=4;spacingRight=4;overflow=hidden;rotatable=0;points=[[0,0.5],[1,0.5]];portConstraint=eastwest;whiteSpace=wrap;html=1;" parent="ouK6QzMCspJjK9I2fayr-78" vertex="1">
          <mxGeometry y="104" width="220" height="26" as="geometry" />
        </mxCell>
        <mxCell id="ouK6QzMCspJjK9I2fayr-81" value="-name:string" style="text;strokeColor=#36393d;fillColor=#eeeeee;align=left;verticalAlign=top;spacingLeft=4;spacingRight=4;overflow=hidden;rotatable=0;points=[[0,0.5],[1,0.5]];portConstraint=eastwest;whiteSpace=wrap;html=1;" parent="ouK6QzMCspJjK9I2fayr-78" vertex="1">
          <mxGeometry y="130" width="220" height="26" as="geometry" />
        </mxCell>
        <mxCell id="ouK6QzMCspJjK9I2fayr-83" value="-description" style="text;strokeColor=#36393d;fillColor=#eeeeee;align=left;verticalAlign=top;spacingLeft=4;spacingRight=4;overflow=hidden;rotatable=0;points=[[0,0.5],[1,0.5]];portConstraint=eastwest;whiteSpace=wrap;html=1;" parent="ouK6QzMCspJjK9I2fayr-78" vertex="1">
          <mxGeometry y="156" width="220" height="26" as="geometry" />
        </mxCell>
        <mxCell id="ouK6QzMCspJjK9I2fayr-84" value="-quantity:int" style="text;strokeColor=#36393d;fillColor=#eeeeee;align=left;verticalAlign=top;spacingLeft=4;spacingRight=4;overflow=hidden;rotatable=0;points=[[0,0.5],[1,0.5]];portConstraint=eastwest;whiteSpace=wrap;html=1;" parent="ouK6QzMCspJjK9I2fayr-78" vertex="1">
          <mxGeometry y="182" width="220" height="26" as="geometry" />
        </mxCell>
        <mxCell id="ouK6QzMCspJjK9I2fayr-85" value="-image:string" style="text;strokeColor=#36393d;fillColor=#eeeeee;align=left;verticalAlign=top;spacingLeft=4;spacingRight=4;overflow=hidden;rotatable=0;points=[[0,0.5],[1,0.5]];portConstraint=eastwest;whiteSpace=wrap;html=1;" parent="ouK6QzMCspJjK9I2fayr-78" vertex="1">
          <mxGeometry y="208" width="220" height="26" as="geometry" />
        </mxCell>
        <mxCell id="ouK6QzMCspJjK9I2fayr-86" value="" style="line;strokeWidth=1;fillColor=none;align=left;verticalAlign=middle;spacingTop=-1;spacingLeft=3;spacingRight=3;rotatable=0;labelPosition=right;points=[];portConstraint=eastwest;strokeColor=inherit;" parent="ouK6QzMCspJjK9I2fayr-78" vertex="1">
          <mxGeometry y="234" width="220" height="8" as="geometry" />
        </mxCell>
        <mxCell id="ouK6QzMCspJjK9I2fayr-87" value="+all()" style="text;strokeColor=#82b366;fillColor=#d5e8d4;align=left;verticalAlign=top;spacingLeft=4;spacingRight=4;overflow=hidden;rotatable=0;points=[[0,0.5],[1,0.5]];portConstraint=eastwest;whiteSpace=wrap;html=1;" parent="ouK6QzMCspJjK9I2fayr-78" vertex="1">
          <mxGeometry y="242" width="220" height="26" as="geometry" />
        </mxCell>
        <mxCell id="ouK6QzMCspJjK9I2fayr-88" value="+show(key)" style="text;strokeColor=#82b366;fillColor=#d5e8d4;align=left;verticalAlign=top;spacingLeft=4;spacingRight=4;overflow=hidden;rotatable=0;points=[[0,0.5],[1,0.5]];portConstraint=eastwest;whiteSpace=wrap;html=1;" parent="ouK6QzMCspJjK9I2fayr-78" vertex="1">
          <mxGeometry y="268" width="220" height="26" as="geometry" />
        </mxCell>
        <mxCell id="ouK6QzMCspJjK9I2fayr-89" value="+clear()" style="text;strokeColor=#82b366;fillColor=#d5e8d4;align=left;verticalAlign=top;spacingLeft=4;spacingRight=4;overflow=hidden;rotatable=0;points=[[0,0.5],[1,0.5]];portConstraint=eastwest;whiteSpace=wrap;html=1;" parent="ouK6QzMCspJjK9I2fayr-78" vertex="1">
          <mxGeometry y="294" width="220" height="26" as="geometry" />
        </mxCell>
        <mxCell id="ouK6QzMCspJjK9I2fayr-90" value="+store(data)" style="text;strokeColor=#82b366;fillColor=#d5e8d4;align=left;verticalAlign=top;spacingLeft=4;spacingRight=4;overflow=hidden;rotatable=0;points=[[0,0.5],[1,0.5]];portConstraint=eastwest;whiteSpace=wrap;html=1;" parent="ouK6QzMCspJjK9I2fayr-78" vertex="1">
          <mxGeometry y="320" width="220" height="26" as="geometry" />
        </mxCell>
        <mxCell id="ouK6QzMCspJjK9I2fayr-91" value="+destroy(id)" style="text;strokeColor=#82b366;fillColor=#d5e8d4;align=left;verticalAlign=top;spacingLeft=4;spacingRight=4;overflow=hidden;rotatable=0;points=[[0,0.5],[1,0.5]];portConstraint=eastwest;whiteSpace=wrap;html=1;" parent="ouK6QzMCspJjK9I2fayr-78" vertex="1">
          <mxGeometry y="346" width="220" height="26" as="geometry" />
        </mxCell>
        <mxCell id="ouK6QzMCspJjK9I2fayr-92" value="+update(id , data)" style="text;strokeColor=#82b366;fillColor=#d5e8d4;align=left;verticalAlign=top;spacingLeft=4;spacingRight=4;overflow=hidden;rotatable=0;points=[[0,0.5],[1,0.5]];portConstraint=eastwest;whiteSpace=wrap;html=1;" parent="ouK6QzMCspJjK9I2fayr-78" vertex="1">
          <mxGeometry y="372" width="220" height="26" as="geometry" />
        </mxCell>
        <mxCell id="ouK6QzMCspJjK9I2fayr-93" value="+listByUser(user_id)" style="text;strokeColor=#82b366;fillColor=#d5e8d4;align=left;verticalAlign=top;spacingLeft=4;spacingRight=4;overflow=hidden;rotatable=0;points=[[0,0.5],[1,0.5]];portConstraint=eastwest;whiteSpace=wrap;html=1;" parent="ouK6QzMCspJjK9I2fayr-78" vertex="1">
          <mxGeometry y="398" width="220" height="26" as="geometry" />
        </mxCell>
        <mxCell id="ouK6QzMCspJjK9I2fayr-94" value="+showToday()" style="text;strokeColor=#82b366;fillColor=#d5e8d4;align=left;verticalAlign=top;spacingLeft=4;spacingRight=4;overflow=hidden;rotatable=0;points=[[0,0.5],[1,0.5]];portConstraint=eastwest;whiteSpace=wrap;html=1;" parent="ouK6QzMCspJjK9I2fayr-78" vertex="1">
          <mxGeometry y="424" width="220" height="26" as="geometry" />
        </mxCell>
        <mxCell id="ouK6QzMCspJjK9I2fayr-97" value="-listByCategory(category_id)" style="text;strokeColor=#82b366;fillColor=#d5e8d4;align=left;verticalAlign=top;spacingLeft=4;spacingRight=4;overflow=hidden;rotatable=0;points=[[0,0.5],[1,0.5]];portConstraint=eastwest;whiteSpace=wrap;html=1;" parent="ouK6QzMCspJjK9I2fayr-78" vertex="1">
          <mxGeometry y="450" width="220" height="26" as="geometry" />
        </mxCell>
        <mxCell id="ouK6QzMCspJjK9I2fayr-98" value="Categories" style="swimlane;fontStyle=1;align=center;verticalAlign=top;childLayout=stackLayout;horizontal=1;startSize=26;horizontalStack=0;resizeParent=1;resizeParentMax=0;resizeLast=0;collapsible=1;marginBottom=0;whiteSpace=wrap;html=1;" parent="1" vertex="1">
          <mxGeometry x="-450" y="291" width="220" height="268" as="geometry" />
        </mxCell>
        <mxCell id="ouK6QzMCspJjK9I2fayr-99" value="-id: int" style="text;strokeColor=#B09500;fillColor=#e3c800;align=left;verticalAlign=top;spacingLeft=4;spacingRight=4;overflow=hidden;rotatable=0;points=[[0,0.5],[1,0.5]];portConstraint=eastwest;whiteSpace=wrap;html=1;fontColor=#000000;" parent="ouK6QzMCspJjK9I2fayr-98" vertex="1">
          <mxGeometry y="26" width="220" height="26" as="geometry" />
        </mxCell>
        <mxCell id="ouK6QzMCspJjK9I2fayr-102" value="-name:string" style="text;strokeColor=#36393d;fillColor=#eeeeee;align=left;verticalAlign=top;spacingLeft=4;spacingRight=4;overflow=hidden;rotatable=0;points=[[0,0.5],[1,0.5]];portConstraint=eastwest;whiteSpace=wrap;html=1;" parent="ouK6QzMCspJjK9I2fayr-98" vertex="1">
          <mxGeometry y="52" width="220" height="26" as="geometry" />
        </mxCell>
        <mxCell id="ouK6QzMCspJjK9I2fayr-104" value="-description" style="text;strokeColor=#36393d;fillColor=#eeeeee;align=left;verticalAlign=top;spacingLeft=4;spacingRight=4;overflow=hidden;rotatable=0;points=[[0,0.5],[1,0.5]];portConstraint=eastwest;whiteSpace=wrap;html=1;" parent="ouK6QzMCspJjK9I2fayr-98" vertex="1">
          <mxGeometry y="78" width="220" height="26" as="geometry" />
        </mxCell>
        <mxCell id="ouK6QzMCspJjK9I2fayr-107" value="" style="line;strokeWidth=1;fillColor=none;align=left;verticalAlign=middle;spacingTop=-1;spacingLeft=3;spacingRight=3;rotatable=0;labelPosition=right;points=[];portConstraint=eastwest;strokeColor=inherit;" parent="ouK6QzMCspJjK9I2fayr-98" vertex="1">
          <mxGeometry y="104" width="220" height="8" as="geometry" />
        </mxCell>
        <mxCell id="ouK6QzMCspJjK9I2fayr-108" value="+all()" style="text;strokeColor=#82b366;fillColor=#d5e8d4;align=left;verticalAlign=top;spacingLeft=4;spacingRight=4;overflow=hidden;rotatable=0;points=[[0,0.5],[1,0.5]];portConstraint=eastwest;whiteSpace=wrap;html=1;" parent="ouK6QzMCspJjK9I2fayr-98" vertex="1">
          <mxGeometry y="112" width="220" height="26" as="geometry" />
        </mxCell>
        <mxCell id="ouK6QzMCspJjK9I2fayr-109" value="+show(id)" style="text;strokeColor=#82b366;fillColor=#d5e8d4;align=left;verticalAlign=top;spacingLeft=4;spacingRight=4;overflow=hidden;rotatable=0;points=[[0,0.5],[1,0.5]];portConstraint=eastwest;whiteSpace=wrap;html=1;" parent="ouK6QzMCspJjK9I2fayr-98" vertex="1">
          <mxGeometry y="138" width="220" height="26" as="geometry" />
        </mxCell>
        <mxCell id="ouK6QzMCspJjK9I2fayr-110" value="+clear()" style="text;strokeColor=#82b366;fillColor=#d5e8d4;align=left;verticalAlign=top;spacingLeft=4;spacingRight=4;overflow=hidden;rotatable=0;points=[[0,0.5],[1,0.5]];portConstraint=eastwest;whiteSpace=wrap;html=1;" parent="ouK6QzMCspJjK9I2fayr-98" vertex="1">
          <mxGeometry y="164" width="220" height="26" as="geometry" />
        </mxCell>
        <mxCell id="ouK6QzMCspJjK9I2fayr-111" value="+store(data)" style="text;strokeColor=#82b366;fillColor=#d5e8d4;align=left;verticalAlign=top;spacingLeft=4;spacingRight=4;overflow=hidden;rotatable=0;points=[[0,0.5],[1,0.5]];portConstraint=eastwest;whiteSpace=wrap;html=1;" parent="ouK6QzMCspJjK9I2fayr-98" vertex="1">
          <mxGeometry y="190" width="220" height="26" as="geometry" />
        </mxCell>
        <mxCell id="ouK6QzMCspJjK9I2fayr-112" value="+destroy(id)" style="text;strokeColor=#82b366;fillColor=#d5e8d4;align=left;verticalAlign=top;spacingLeft=4;spacingRight=4;overflow=hidden;rotatable=0;points=[[0,0.5],[1,0.5]];portConstraint=eastwest;whiteSpace=wrap;html=1;" parent="ouK6QzMCspJjK9I2fayr-98" vertex="1">
          <mxGeometry y="216" width="220" height="26" as="geometry" />
        </mxCell>
        <mxCell id="ouK6QzMCspJjK9I2fayr-113" value="+update(id , data)" style="text;strokeColor=#82b366;fillColor=#d5e8d4;align=left;verticalAlign=top;spacingLeft=4;spacingRight=4;overflow=hidden;rotatable=0;points=[[0,0.5],[1,0.5]];portConstraint=eastwest;whiteSpace=wrap;html=1;" parent="ouK6QzMCspJjK9I2fayr-98" vertex="1">
          <mxGeometry y="242" width="220" height="26" as="geometry" />
        </mxCell>
        <mxCell id="ouK6QzMCspJjK9I2fayr-117" value="Reservations" style="swimlane;fontStyle=1;align=center;verticalAlign=top;childLayout=stackLayout;horizontal=1;startSize=26;horizontalStack=0;resizeParent=1;resizeParentMax=0;resizeLast=0;collapsible=1;marginBottom=0;whiteSpace=wrap;html=1;" parent="1" vertex="1">
          <mxGeometry x="240" y="-510" width="260" height="268" as="geometry" />
        </mxCell>
        <mxCell id="ouK6QzMCspJjK9I2fayr-118" value="-id: int" style="text;strokeColor=#B09500;fillColor=#e3c800;align=left;verticalAlign=top;spacingLeft=4;spacingRight=4;overflow=hidden;rotatable=0;points=[[0,0.5],[1,0.5]];portConstraint=eastwest;whiteSpace=wrap;html=1;fontColor=#000000;" parent="ouK6QzMCspJjK9I2fayr-117" vertex="1">
          <mxGeometry y="26" width="260" height="26" as="geometry" />
        </mxCell>
        <mxCell id="ouK6QzMCspJjK9I2fayr-142" value="-menu_id:int" style="text;strokeColor=#36393d;fillColor=#cce5ff;align=left;verticalAlign=top;spacingLeft=4;spacingRight=4;overflow=hidden;rotatable=0;points=[[0,0.5],[1,0.5]];portConstraint=eastwest;whiteSpace=wrap;html=1;" parent="ouK6QzMCspJjK9I2fayr-117" vertex="1">
          <mxGeometry y="52" width="260" height="26" as="geometry" />
        </mxCell>
        <mxCell id="ouK6QzMCspJjK9I2fayr-140" value="-user_id:int" style="text;strokeColor=#36393d;fillColor=#cce5ff;align=left;verticalAlign=top;spacingLeft=4;spacingRight=4;overflow=hidden;rotatable=0;points=[[0,0.5],[1,0.5]];portConstraint=eastwest;whiteSpace=wrap;html=1;" parent="ouK6QzMCspJjK9I2fayr-117" vertex="1">
          <mxGeometry y="78" width="260" height="26" as="geometry" />
        </mxCell>
        <mxCell id="ouK6QzMCspJjK9I2fayr-119" value="-quantity" style="text;strokeColor=#36393d;fillColor=#eeeeee;align=left;verticalAlign=top;spacingLeft=4;spacingRight=4;overflow=hidden;rotatable=0;points=[[0,0.5],[1,0.5]];portConstraint=eastwest;whiteSpace=wrap;html=1;" parent="ouK6QzMCspJjK9I2fayr-117" vertex="1">
          <mxGeometry y="104" width="260" height="26" as="geometry" />
        </mxCell>
        <mxCell id="ouK6QzMCspJjK9I2fayr-121" value="" style="line;strokeWidth=1;fillColor=none;align=left;verticalAlign=middle;spacingTop=-1;spacingLeft=3;spacingRight=3;rotatable=0;labelPosition=right;points=[];portConstraint=eastwest;strokeColor=inherit;" parent="ouK6QzMCspJjK9I2fayr-117" vertex="1">
          <mxGeometry y="130" width="260" height="8" as="geometry" />
        </mxCell>
        <mxCell id="ouK6QzMCspJjK9I2fayr-122" value="+all()" style="text;strokeColor=#82b366;fillColor=#d5e8d4;align=left;verticalAlign=top;spacingLeft=4;spacingRight=4;overflow=hidden;rotatable=0;points=[[0,0.5],[1,0.5]];portConstraint=eastwest;whiteSpace=wrap;html=1;" parent="ouK6QzMCspJjK9I2fayr-117" vertex="1">
          <mxGeometry y="138" width="260" height="26" as="geometry" />
        </mxCell>
        <mxCell id="ouK6QzMCspJjK9I2fayr-123" value="+show(id)" style="text;strokeColor=#82b366;fillColor=#d5e8d4;align=left;verticalAlign=top;spacingLeft=4;spacingRight=4;overflow=hidden;rotatable=0;points=[[0,0.5],[1,0.5]];portConstraint=eastwest;whiteSpace=wrap;html=1;" parent="ouK6QzMCspJjK9I2fayr-117" vertex="1">
          <mxGeometry y="164" width="260" height="26" as="geometry" />
        </mxCell>
        <mxCell id="ouK6QzMCspJjK9I2fayr-124" value="+clear()" style="text;strokeColor=#82b366;fillColor=#d5e8d4;align=left;verticalAlign=top;spacingLeft=4;spacingRight=4;overflow=hidden;rotatable=0;points=[[0,0.5],[1,0.5]];portConstraint=eastwest;whiteSpace=wrap;html=1;" parent="ouK6QzMCspJjK9I2fayr-117" vertex="1">
          <mxGeometry y="190" width="260" height="26" as="geometry" />
        </mxCell>
        <mxCell id="ouK6QzMCspJjK9I2fayr-125" value="+store(data)" style="text;strokeColor=#82b366;fillColor=#d5e8d4;align=left;verticalAlign=top;spacingLeft=4;spacingRight=4;overflow=hidden;rotatable=0;points=[[0,0.5],[1,0.5]];portConstraint=eastwest;whiteSpace=wrap;html=1;" parent="ouK6QzMCspJjK9I2fayr-117" vertex="1">
          <mxGeometry y="216" width="260" height="26" as="geometry" />
        </mxCell>
        <mxCell id="ouK6QzMCspJjK9I2fayr-126" value="+destroy(id)" style="text;strokeColor=#82b366;fillColor=#d5e8d4;align=left;verticalAlign=top;spacingLeft=4;spacingRight=4;overflow=hidden;rotatable=0;points=[[0,0.5],[1,0.5]];portConstraint=eastwest;whiteSpace=wrap;html=1;" parent="ouK6QzMCspJjK9I2fayr-117" vertex="1">
          <mxGeometry y="242" width="260" height="26" as="geometry" />
        </mxCell>
        <mxCell id="ouK6QzMCspJjK9I2fayr-143" value="Tokens" style="swimlane;fontStyle=1;align=center;verticalAlign=top;childLayout=stackLayout;horizontal=1;startSize=26;horizontalStack=0;resizeParent=1;resizeParentMax=0;resizeLast=0;collapsible=1;marginBottom=0;whiteSpace=wrap;html=1;" parent="1" vertex="1">
          <mxGeometry x="1050" y="130" width="260" height="398" as="geometry" />
        </mxCell>
        <mxCell id="ouK6QzMCspJjK9I2fayr-156" value="-ip:string" style="text;strokeColor=#36393d;fillColor=#eeeeee;align=left;verticalAlign=top;spacingLeft=4;spacingRight=4;overflow=hidden;rotatable=0;points=[[0,0.5],[1,0.5]];portConstraint=eastwest;whiteSpace=wrap;html=1;" parent="ouK6QzMCspJjK9I2fayr-143" vertex="1">
          <mxGeometry y="26" width="260" height="26" as="geometry" />
        </mxCell>
        <mxCell id="ouK6QzMCspJjK9I2fayr-158" value="-device:string" style="text;strokeColor=#36393d;fillColor=#eeeeee;align=left;verticalAlign=top;spacingLeft=4;spacingRight=4;overflow=hidden;rotatable=0;points=[[0,0.5],[1,0.5]];portConstraint=eastwest;whiteSpace=wrap;html=1;" parent="ouK6QzMCspJjK9I2fayr-143" vertex="1">
          <mxGeometry y="52" width="260" height="26" as="geometry" />
        </mxCell>
        <mxCell id="ouK6QzMCspJjK9I2fayr-160" value="-location:string" style="text;strokeColor=#36393d;fillColor=#eeeeee;align=left;verticalAlign=top;spacingLeft=4;spacingRight=4;overflow=hidden;rotatable=0;points=[[0,0.5],[1,0.5]];portConstraint=eastwest;whiteSpace=wrap;html=1;" parent="ouK6QzMCspJjK9I2fayr-143" vertex="1">
          <mxGeometry y="78" width="260" height="26" as="geometry" />
        </mxCell>
        <mxCell id="ouK6QzMCspJjK9I2fayr-159" value="-platform:string" style="text;strokeColor=#36393d;fillColor=#eeeeee;align=left;verticalAlign=top;spacingLeft=4;spacingRight=4;overflow=hidden;rotatable=0;points=[[0,0.5],[1,0.5]];portConstraint=eastwest;whiteSpace=wrap;html=1;" parent="ouK6QzMCspJjK9I2fayr-143" vertex="1">
          <mxGeometry y="104" width="260" height="26" as="geometry" />
        </mxCell>
        <mxCell id="ouK6QzMCspJjK9I2fayr-157" value="-browser:string" style="text;strokeColor=#36393d;fillColor=#eeeeee;align=left;verticalAlign=top;spacingLeft=4;spacingRight=4;overflow=hidden;rotatable=0;points=[[0,0.5],[1,0.5]];portConstraint=eastwest;whiteSpace=wrap;html=1;" parent="ouK6QzMCspJjK9I2fayr-143" vertex="1">
          <mxGeometry y="130" width="260" height="26" as="geometry" />
        </mxCell>
        <mxCell id="ouK6QzMCspJjK9I2fayr-154" value="-expires_at : datetime" style="text;strokeColor=#36393d;fillColor=#eeeeee;align=left;verticalAlign=top;spacingLeft=4;spacingRight=4;overflow=hidden;rotatable=0;points=[[0,0.5],[1,0.5]];portConstraint=eastwest;whiteSpace=wrap;html=1;" parent="ouK6QzMCspJjK9I2fayr-143" vertex="1">
          <mxGeometry y="156" width="260" height="26" as="geometry" />
        </mxCell>
        <mxCell id="ouK6QzMCspJjK9I2fayr-155" value="-network:string" style="text;strokeColor=#36393d;fillColor=#eeeeee;align=left;verticalAlign=top;spacingLeft=4;spacingRight=4;overflow=hidden;rotatable=0;points=[[0,0.5],[1,0.5]];portConstraint=eastwest;whiteSpace=wrap;html=1;" parent="ouK6QzMCspJjK9I2fayr-143" vertex="1">
          <mxGeometry y="182" width="260" height="26" as="geometry" />
        </mxCell>
        <mxCell id="ouK6QzMCspJjK9I2fayr-147" value="-code:string" style="text;strokeColor=#36393d;fillColor=#eeeeee;align=left;verticalAlign=top;spacingLeft=4;spacingRight=4;overflow=hidden;rotatable=0;points=[[0,0.5],[1,0.5]];portConstraint=eastwest;whiteSpace=wrap;html=1;" parent="ouK6QzMCspJjK9I2fayr-143" vertex="1">
          <mxGeometry y="208" width="260" height="26" as="geometry" />
        </mxCell>
        <mxCell id="ouK6QzMCspJjK9I2fayr-148" value="" style="line;strokeWidth=1;fillColor=none;align=left;verticalAlign=middle;spacingTop=-1;spacingLeft=3;spacingRight=3;rotatable=0;labelPosition=right;points=[];portConstraint=eastwest;strokeColor=inherit;" parent="ouK6QzMCspJjK9I2fayr-143" vertex="1">
          <mxGeometry y="234" width="260" height="8" as="geometry" />
        </mxCell>
        <mxCell id="ouK6QzMCspJjK9I2fayr-161" value="+show(id)" style="text;strokeColor=#82b366;fillColor=#d5e8d4;align=left;verticalAlign=top;spacingLeft=4;spacingRight=4;overflow=hidden;rotatable=0;points=[[0,0.5],[1,0.5]];portConstraint=eastwest;whiteSpace=wrap;html=1;" parent="ouK6QzMCspJjK9I2fayr-143" vertex="1">
          <mxGeometry y="242" width="260" height="26" as="geometry" />
        </mxCell>
        <mxCell id="ouK6QzMCspJjK9I2fayr-162" value="+destroy(id)" style="text;strokeColor=#82b366;fillColor=#d5e8d4;align=left;verticalAlign=top;spacingLeft=4;spacingRight=4;overflow=hidden;rotatable=0;points=[[0,0.5],[1,0.5]];portConstraint=eastwest;whiteSpace=wrap;html=1;" parent="ouK6QzMCspJjK9I2fayr-143" vertex="1">
          <mxGeometry y="268" width="260" height="26" as="geometry" />
        </mxCell>
        <mxCell id="ouK6QzMCspJjK9I2fayr-164" value="+update(id , data)" style="text;strokeColor=#82b366;fillColor=#d5e8d4;align=left;verticalAlign=top;spacingLeft=4;spacingRight=4;overflow=hidden;rotatable=0;points=[[0,0.5],[1,0.5]];portConstraint=eastwest;whiteSpace=wrap;html=1;" parent="ouK6QzMCspJjK9I2fayr-143" vertex="1">
          <mxGeometry y="294" width="260" height="26" as="geometry" />
        </mxCell>
        <mxCell id="ouK6QzMCspJjK9I2fayr-149" value="+tokenValidated()" style="text;strokeColor=#82b366;fillColor=#d5e8d4;align=left;verticalAlign=top;spacingLeft=4;spacingRight=4;overflow=hidden;rotatable=0;points=[[0,0.5],[1,0.5]];portConstraint=eastwest;whiteSpace=wrap;html=1;" parent="ouK6QzMCspJjK9I2fayr-143" vertex="1">
          <mxGeometry y="320" width="260" height="26" as="geometry" />
        </mxCell>
        <mxCell id="ouK6QzMCspJjK9I2fayr-150" value="+generateToken()" style="text;strokeColor=#82b366;fillColor=#d5e8d4;align=left;verticalAlign=top;spacingLeft=4;spacingRight=4;overflow=hidden;rotatable=0;points=[[0,0.5],[1,0.5]];portConstraint=eastwest;whiteSpace=wrap;html=1;" parent="ouK6QzMCspJjK9I2fayr-143" vertex="1">
          <mxGeometry y="346" width="260" height="26" as="geometry" />
        </mxCell>
        <mxCell id="ouK6QzMCspJjK9I2fayr-151" value="+checkToken()" style="text;strokeColor=#82b366;fillColor=#d5e8d4;align=left;verticalAlign=top;spacingLeft=4;spacingRight=4;overflow=hidden;rotatable=0;points=[[0,0.5],[1,0.5]];portConstraint=eastwest;whiteSpace=wrap;html=1;" parent="ouK6QzMCspJjK9I2fayr-143" vertex="1">
          <mxGeometry y="372" width="260" height="26" as="geometry" />
        </mxCell>
        <mxCell id="ouK6QzMCspJjK9I2fayr-165" value="Pcontrollers" style="swimlane;fontStyle=1;align=center;verticalAlign=top;childLayout=stackLayout;horizontal=1;startSize=26;horizontalStack=0;resizeParent=1;resizeParentMax=0;resizeLast=0;collapsible=1;marginBottom=0;whiteSpace=wrap;html=1;" parent="1" vertex="1">
          <mxGeometry x="1390" y="-248" width="260" height="138" as="geometry" />
        </mxCell>
        <mxCell id="ouK6QzMCspJjK9I2fayr-166" value="-id: int" style="text;strokeColor=#B09500;fillColor=#e3c800;align=left;verticalAlign=top;spacingLeft=4;spacingRight=4;overflow=hidden;rotatable=0;points=[[0,0.5],[1,0.5]];portConstraint=eastwest;whiteSpace=wrap;html=1;fontColor=#000000;" parent="ouK6QzMCspJjK9I2fayr-165" vertex="1">
          <mxGeometry y="26" width="260" height="26" as="geometry" />
        </mxCell>
        <mxCell id="ouK6QzMCspJjK9I2fayr-144" value="-id: int" style="text;strokeColor=#B09500;fillColor=#e3c800;align=left;verticalAlign=top;spacingLeft=4;spacingRight=4;overflow=hidden;rotatable=0;points=[[0,0.5],[1,0.5]];portConstraint=eastwest;whiteSpace=wrap;html=1;fontColor=#000000;" parent="ouK6QzMCspJjK9I2fayr-165" vertex="1">
          <mxGeometry y="52" width="260" height="26" as="geometry" />
        </mxCell>
        <mxCell id="ouK6QzMCspJjK9I2fayr-167" value="-name:string" style="text;strokeColor=#36393d;fillColor=#eeeeee;align=left;verticalAlign=top;spacingLeft=4;spacingRight=4;overflow=hidden;rotatable=0;points=[[0,0.5],[1,0.5]];portConstraint=eastwest;whiteSpace=wrap;html=1;" parent="ouK6QzMCspJjK9I2fayr-165" vertex="1">
          <mxGeometry y="78" width="260" height="26" as="geometry" />
        </mxCell>
        <mxCell id="ouK6QzMCspJjK9I2fayr-168" value="-description" style="text;strokeColor=#36393d;fillColor=#eeeeee;align=left;verticalAlign=top;spacingLeft=4;spacingRight=4;overflow=hidden;rotatable=0;points=[[0,0.5],[1,0.5]];portConstraint=eastwest;whiteSpace=wrap;html=1;" parent="ouK6QzMCspJjK9I2fayr-165" vertex="1">
          <mxGeometry y="104" width="260" height="26" as="geometry" />
        </mxCell>
        <mxCell id="ouK6QzMCspJjK9I2fayr-169" value="" style="line;strokeWidth=1;fillColor=none;align=left;verticalAlign=middle;spacingTop=-1;spacingLeft=3;spacingRight=3;rotatable=0;labelPosition=right;points=[];portConstraint=eastwest;strokeColor=inherit;" parent="ouK6QzMCspJjK9I2fayr-165" vertex="1">
          <mxGeometry y="130" width="260" height="8" as="geometry" />
        </mxCell>
        <mxCell id="ouK6QzMCspJjK9I2fayr-176" value="Pmethode" style="swimlane;fontStyle=1;align=center;verticalAlign=top;childLayout=stackLayout;horizontal=1;startSize=26;horizontalStack=0;resizeParent=1;resizeParentMax=0;resizeLast=0;collapsible=1;marginBottom=0;whiteSpace=wrap;html=1;" parent="1" vertex="1">
          <mxGeometry x="1394" y="-60" width="260" height="112" as="geometry" />
        </mxCell>
        <mxCell id="ouK6QzMCspJjK9I2fayr-177" value="-id: int" style="text;strokeColor=#B09500;fillColor=#e3c800;align=left;verticalAlign=top;spacingLeft=4;spacingRight=4;overflow=hidden;rotatable=0;points=[[0,0.5],[1,0.5]];portConstraint=eastwest;whiteSpace=wrap;html=1;fontColor=#000000;" parent="ouK6QzMCspJjK9I2fayr-176" vertex="1">
          <mxGeometry y="26" width="260" height="26" as="geometry" />
        </mxCell>
        <mxCell id="ouK6QzMCspJjK9I2fayr-178" value="-name:string" style="text;strokeColor=#36393d;fillColor=#eeeeee;align=left;verticalAlign=top;spacingLeft=4;spacingRight=4;overflow=hidden;rotatable=0;points=[[0,0.5],[1,0.5]];portConstraint=eastwest;whiteSpace=wrap;html=1;" parent="ouK6QzMCspJjK9I2fayr-176" vertex="1">
          <mxGeometry y="52" width="260" height="26" as="geometry" />
        </mxCell>
        <mxCell id="ouK6QzMCspJjK9I2fayr-179" value="-description" style="text;strokeColor=#36393d;fillColor=#eeeeee;align=left;verticalAlign=top;spacingLeft=4;spacingRight=4;overflow=hidden;rotatable=0;points=[[0,0.5],[1,0.5]];portConstraint=eastwest;whiteSpace=wrap;html=1;" parent="ouK6QzMCspJjK9I2fayr-176" vertex="1">
          <mxGeometry y="78" width="260" height="26" as="geometry" />
        </mxCell>
        <mxCell id="ouK6QzMCspJjK9I2fayr-180" value="" style="line;strokeWidth=1;fillColor=none;align=left;verticalAlign=middle;spacingTop=-1;spacingLeft=3;spacingRight=3;rotatable=0;labelPosition=right;points=[];portConstraint=eastwest;strokeColor=inherit;" parent="ouK6QzMCspJjK9I2fayr-176" vertex="1">
          <mxGeometry y="104" width="260" height="8" as="geometry" />
        </mxCell>
        <mxCell id="ouK6QzMCspJjK9I2fayr-203" value="Roles" style="swimlane;fontStyle=1;align=center;verticalAlign=top;childLayout=stackLayout;horizontal=1;startSize=26;horizontalStack=0;resizeParent=1;resizeParentMax=0;resizeLast=0;collapsible=1;marginBottom=0;whiteSpace=wrap;html=1;" parent="1" vertex="1">
          <mxGeometry x="960" y="-360" width="260" height="112" as="geometry" />
        </mxCell>
        <mxCell id="ouK6QzMCspJjK9I2fayr-204" value="-id: int" style="text;strokeColor=#B09500;fillColor=#e3c800;align=left;verticalAlign=top;spacingLeft=4;spacingRight=4;overflow=hidden;rotatable=0;points=[[0,0.5],[1,0.5]];portConstraint=eastwest;whiteSpace=wrap;html=1;fontColor=#000000;" parent="ouK6QzMCspJjK9I2fayr-203" vertex="1">
          <mxGeometry y="26" width="260" height="26" as="geometry" />
        </mxCell>
        <mxCell id="ouK6QzMCspJjK9I2fayr-205" value="-name:string" style="text;strokeColor=#36393d;fillColor=#eeeeee;align=left;verticalAlign=top;spacingLeft=4;spacingRight=4;overflow=hidden;rotatable=0;points=[[0,0.5],[1,0.5]];portConstraint=eastwest;whiteSpace=wrap;html=1;" parent="ouK6QzMCspJjK9I2fayr-203" vertex="1">
          <mxGeometry y="52" width="260" height="26" as="geometry" />
        </mxCell>
        <mxCell id="ouK6QzMCspJjK9I2fayr-206" value="-description" style="text;strokeColor=#36393d;fillColor=#eeeeee;align=left;verticalAlign=top;spacingLeft=4;spacingRight=4;overflow=hidden;rotatable=0;points=[[0,0.5],[1,0.5]];portConstraint=eastwest;whiteSpace=wrap;html=1;" parent="ouK6QzMCspJjK9I2fayr-203" vertex="1">
          <mxGeometry y="78" width="260" height="26" as="geometry" />
        </mxCell>
        <mxCell id="ouK6QzMCspJjK9I2fayr-207" value="" style="line;strokeWidth=1;fillColor=none;align=left;verticalAlign=middle;spacingTop=-1;spacingLeft=3;spacingRight=3;rotatable=0;labelPosition=right;points=[];portConstraint=eastwest;strokeColor=inherit;" parent="ouK6QzMCspJjK9I2fayr-203" vertex="1">
          <mxGeometry y="104" width="260" height="8" as="geometry" />
        </mxCell>
        <mxCell id="ouK6QzMCspJjK9I2fayr-302" value="Permissions" style="swimlane;fontStyle=1;align=center;verticalAlign=top;childLayout=stackLayout;horizontal=1;startSize=26;horizontalStack=0;resizeParent=1;resizeParentMax=0;resizeLast=0;collapsible=1;marginBottom=0;whiteSpace=wrap;html=1;" parent="1" vertex="1">
          <mxGeometry x="1050" y="-150" width="260" height="242" as="geometry" />
        </mxCell>
        <mxCell id="ouK6QzMCspJjK9I2fayr-303" value="-id: int" style="text;strokeColor=#B09500;fillColor=#e3c800;align=left;verticalAlign=top;spacingLeft=4;spacingRight=4;overflow=hidden;rotatable=0;points=[[0,0.5],[1,0.5]];portConstraint=eastwest;whiteSpace=wrap;html=1;fontColor=#000000;" parent="ouK6QzMCspJjK9I2fayr-302" vertex="1">
          <mxGeometry y="26" width="260" height="26" as="geometry" />
        </mxCell>
        <mxCell id="ouK6QzMCspJjK9I2fayr-305" value="-user_id:int" style="text;strokeColor=#36393d;fillColor=#cce5ff;align=left;verticalAlign=top;spacingLeft=4;spacingRight=4;overflow=hidden;rotatable=0;points=[[0,0.5],[1,0.5]];portConstraint=eastwest;whiteSpace=wrap;html=1;" parent="ouK6QzMCspJjK9I2fayr-302" vertex="1">
          <mxGeometry y="52" width="260" height="26" as="geometry" />
        </mxCell>
        <mxCell id="ouK6QzMCspJjK9I2fayr-304" value="-pcontroller_id:int" style="text;strokeColor=#36393d;fillColor=#cce5ff;align=left;verticalAlign=top;spacingLeft=4;spacingRight=4;overflow=hidden;rotatable=0;points=[[0,0.5],[1,0.5]];portConstraint=eastwest;whiteSpace=wrap;html=1;" parent="ouK6QzMCspJjK9I2fayr-302" vertex="1">
          <mxGeometry y="78" width="260" height="26" as="geometry" />
        </mxCell>
        <mxCell id="ouK6QzMCspJjK9I2fayr-313" value="-pmethode_id:int" style="text;strokeColor=#36393d;fillColor=#cce5ff;align=left;verticalAlign=top;spacingLeft=4;spacingRight=4;overflow=hidden;rotatable=0;points=[[0,0.5],[1,0.5]];portConstraint=eastwest;whiteSpace=wrap;html=1;" parent="ouK6QzMCspJjK9I2fayr-302" vertex="1">
          <mxGeometry y="104" width="260" height="26" as="geometry" />
        </mxCell>
        <mxCell id="ouK6QzMCspJjK9I2fayr-307" value="" style="line;strokeWidth=1;fillColor=none;align=left;verticalAlign=middle;spacingTop=-1;spacingLeft=3;spacingRight=3;rotatable=0;labelPosition=right;points=[];portConstraint=eastwest;strokeColor=inherit;" parent="ouK6QzMCspJjK9I2fayr-302" vertex="1">
          <mxGeometry y="130" width="260" height="8" as="geometry" />
        </mxCell>
        <mxCell id="ouK6QzMCspJjK9I2fayr-308" value="+getPermissions()" style="text;strokeColor=#82b366;fillColor=#d5e8d4;align=left;verticalAlign=top;spacingLeft=4;spacingRight=4;overflow=hidden;rotatable=0;points=[[0,0.5],[1,0.5]];portConstraint=eastwest;whiteSpace=wrap;html=1;" parent="ouK6QzMCspJjK9I2fayr-302" vertex="1">
          <mxGeometry y="138" width="260" height="26" as="geometry" />
        </mxCell>
        <mxCell id="ouK6QzMCspJjK9I2fayr-311" value="+store(data)" style="text;strokeColor=#82b366;fillColor=#d5e8d4;align=left;verticalAlign=top;spacingLeft=4;spacingRight=4;overflow=hidden;rotatable=0;points=[[0,0.5],[1,0.5]];portConstraint=eastwest;whiteSpace=wrap;html=1;" parent="ouK6QzMCspJjK9I2fayr-302" vertex="1">
          <mxGeometry y="164" width="260" height="26" as="geometry" />
        </mxCell>
        <mxCell id="ouK6QzMCspJjK9I2fayr-312" value="+destroy(id)" style="text;strokeColor=#82b366;fillColor=#d5e8d4;align=left;verticalAlign=top;spacingLeft=4;spacingRight=4;overflow=hidden;rotatable=0;points=[[0,0.5],[1,0.5]];portConstraint=eastwest;whiteSpace=wrap;html=1;" parent="ouK6QzMCspJjK9I2fayr-302" vertex="1">
          <mxGeometry y="190" width="260" height="26" as="geometry" />
        </mxCell>
        <mxCell id="ouK6QzMCspJjK9I2fayr-314" value="+CheckAccess()" style="text;strokeColor=#82b366;fillColor=#d5e8d4;align=left;verticalAlign=top;spacingLeft=4;spacingRight=4;overflow=hidden;rotatable=0;points=[[0,0.5],[1,0.5]];portConstraint=eastwest;whiteSpace=wrap;html=1;" parent="ouK6QzMCspJjK9I2fayr-302" vertex="1">
          <mxGeometry y="216" width="260" height="26" as="geometry" />
        </mxCell>
        <mxCell id="ouK6QzMCspJjK9I2fayr-319" value="Meals_Meanus" style="swimlane;fontStyle=1;align=center;verticalAlign=top;childLayout=stackLayout;horizontal=1;startSize=26;horizontalStack=0;resizeParent=1;resizeParentMax=0;resizeLast=0;collapsible=1;marginBottom=0;whiteSpace=wrap;html=1;" parent="1" vertex="1">
          <mxGeometry x="-700" y="-360" width="260" height="138" as="geometry" />
        </mxCell>
        <mxCell id="ouK6QzMCspJjK9I2fayr-320" value="-id: int" style="text;strokeColor=#B09500;fillColor=#e3c800;align=left;verticalAlign=top;spacingLeft=4;spacingRight=4;overflow=hidden;rotatable=0;points=[[0,0.5],[1,0.5]];portConstraint=eastwest;whiteSpace=wrap;html=1;fontColor=#000000;" parent="ouK6QzMCspJjK9I2fayr-319" vertex="1">
          <mxGeometry y="26" width="260" height="26" as="geometry" />
        </mxCell>
        <mxCell id="ouK6QzMCspJjK9I2fayr-321" value="-menu_id:int" style="text;strokeColor=#36393d;fillColor=#cce5ff;align=left;verticalAlign=top;spacingLeft=4;spacingRight=4;overflow=hidden;rotatable=0;points=[[0,0.5],[1,0.5]];portConstraint=eastwest;whiteSpace=wrap;html=1;" parent="ouK6QzMCspJjK9I2fayr-319" vertex="1">
          <mxGeometry y="52" width="260" height="26" as="geometry" />
        </mxCell>
        <mxCell id="ouK6QzMCspJjK9I2fayr-322" value="-meal_id:int" style="text;strokeColor=#36393d;fillColor=#cce5ff;align=left;verticalAlign=top;spacingLeft=4;spacingRight=4;overflow=hidden;rotatable=0;points=[[0,0.5],[1,0.5]];portConstraint=eastwest;whiteSpace=wrap;html=1;" parent="ouK6QzMCspJjK9I2fayr-319" vertex="1">
          <mxGeometry y="78" width="260" height="26" as="geometry" />
        </mxCell>
        <mxCell id="ouK6QzMCspJjK9I2fayr-323" value="-quantity" style="text;strokeColor=#36393d;fillColor=#eeeeee;align=left;verticalAlign=top;spacingLeft=4;spacingRight=4;overflow=hidden;rotatable=0;points=[[0,0.5],[1,0.5]];portConstraint=eastwest;whiteSpace=wrap;html=1;" parent="ouK6QzMCspJjK9I2fayr-319" vertex="1">
          <mxGeometry y="104" width="260" height="26" as="geometry" />
        </mxCell>
        <mxCell id="ouK6QzMCspJjK9I2fayr-324" value="" style="line;strokeWidth=1;fillColor=none;align=left;verticalAlign=middle;spacingTop=-1;spacingLeft=3;spacingRight=3;rotatable=0;labelPosition=right;points=[];portConstraint=eastwest;strokeColor=inherit;" parent="ouK6QzMCspJjK9I2fayr-319" vertex="1">
          <mxGeometry y="130" width="260" height="8" as="geometry" />
        </mxCell>
        <mxCell id="ouK6QzMCspJjK9I2fayr-348" value="" style="endArrow=diamondThin;html=1;endSize=12;startArrow=none;startSize=14;startFill=0;rounded=0;endFill=1;exitX=0;exitY=0.5;exitDx=0;exitDy=0;" parent="1" source="ouK6QzMCspJjK9I2fayr-305" target="lPbnV7JKpfbCIfiGn8R--153" edge="1">
          <mxGeometry relative="1" as="geometry">
            <mxPoint x="370" y="-200" as="sourcePoint" />
            <mxPoint x="530" y="-200" as="targetPoint" />
          </mxGeometry>
        </mxCell>
        <mxCell id="ouK6QzMCspJjK9I2fayr-349" value="0..*" style="edgeLabel;resizable=0;html=1;align=left;verticalAlign=top;" parent="ouK6QzMCspJjK9I2fayr-348" connectable="0" vertex="1">
          <mxGeometry x="-1" relative="1" as="geometry">
            <mxPoint x="-30" y="20" as="offset" />
          </mxGeometry>
        </mxCell>
        <mxCell id="ouK6QzMCspJjK9I2fayr-350" value="0..*" style="edgeLabel;resizable=0;html=1;align=right;verticalAlign=top;" parent="ouK6QzMCspJjK9I2fayr-348" connectable="0" vertex="1">
          <mxGeometry x="1" relative="1" as="geometry">
            <mxPoint x="28" y="6" as="offset" />
          </mxGeometry>
        </mxCell>
        <mxCell id="ouK6QzMCspJjK9I2fayr-432" value="" style="endArrow=diamondThin;html=1;endSize=12;startArrow=none;startSize=14;startFill=0;rounded=0;endFill=0;entryX=1;entryY=0.5;entryDx=0;entryDy=0;" parent="1" source="ouK6QzMCspJjK9I2fayr-165" target="ouK6QzMCspJjK9I2fayr-304" edge="1">
          <mxGeometry relative="1" as="geometry">
            <mxPoint x="454" y="-37" as="sourcePoint" />
            <mxPoint x="730" y="15" as="targetPoint" />
          </mxGeometry>
        </mxCell>
        <mxCell id="ouK6QzMCspJjK9I2fayr-433" value="0..*" style="edgeLabel;resizable=0;html=1;align=left;verticalAlign=top;" parent="ouK6QzMCspJjK9I2fayr-432" connectable="0" vertex="1">
          <mxGeometry x="-1" relative="1" as="geometry">
            <mxPoint x="-27" y="8" as="offset" />
          </mxGeometry>
        </mxCell>
        <mxCell id="ouK6QzMCspJjK9I2fayr-434" value="0..*" style="edgeLabel;resizable=0;html=1;align=right;verticalAlign=top;" parent="ouK6QzMCspJjK9I2fayr-432" connectable="0" vertex="1">
          <mxGeometry x="1" relative="1" as="geometry">
            <mxPoint x="50" y="-16" as="offset" />
          </mxGeometry>
        </mxCell>
        <mxCell id="ouK6QzMCspJjK9I2fayr-435" value="" style="endArrow=diamondThin;html=1;endSize=12;startArrow=none;startSize=14;startFill=0;rounded=0;endFill=0;entryX=1.001;entryY=0.318;entryDx=0;entryDy=0;entryPerimeter=0;" parent="1" source="ouK6QzMCspJjK9I2fayr-176" target="ouK6QzMCspJjK9I2fayr-313" edge="1">
          <mxGeometry relative="1" as="geometry">
            <mxPoint x="1077" y="-92" as="sourcePoint" />
            <mxPoint x="870" y="21" as="targetPoint" />
          </mxGeometry>
        </mxCell>
        <mxCell id="ouK6QzMCspJjK9I2fayr-436" value="0..*" style="edgeLabel;resizable=0;html=1;align=left;verticalAlign=top;" parent="ouK6QzMCspJjK9I2fayr-435" connectable="0" vertex="1">
          <mxGeometry x="-1" relative="1" as="geometry">
            <mxPoint x="-26" y="-3" as="offset" />
          </mxGeometry>
        </mxCell>
        <mxCell id="ouK6QzMCspJjK9I2fayr-437" value="0..*" style="edgeLabel;resizable=0;html=1;align=right;verticalAlign=top;" parent="ouK6QzMCspJjK9I2fayr-435" connectable="0" vertex="1">
          <mxGeometry x="1" relative="1" as="geometry">
            <mxPoint x="40" y="13" as="offset" />
          </mxGeometry>
        </mxCell>
        <mxCell id="ouK6QzMCspJjK9I2fayr-439" value="&lt;div style=&quot;color: rgb(212, 212, 212); background-color: rgb(30, 30, 30); font-family: Consolas, &amp;quot;Courier New&amp;quot;, monospace; font-weight: normal; font-size: 15px; line-height: 20px;&quot;&gt;&lt;div&gt;&lt;span style=&quot;color: #6a9955;&quot;&gt;!!! 1: pcontroller and pmethode is static data alredy exist in database can&#39;t be deleted or updated&lt;/span&gt;&lt;/div&gt;&lt;div&gt;&lt;span style=&quot;color: #6a9955;&quot;&gt;!!! 2: user is dynamic data can be deleted or updated or created&lt;/span&gt;&lt;/div&gt;&lt;div&gt;&lt;span style=&quot;color: #6a9955;&quot;&gt;!!! 3: permissions can created automatically when user created and deleted automatically when user deleted&amp;nbsp;&amp;nbsp;&lt;/span&gt;&lt;/div&gt;&lt;br&gt;&lt;/div&gt;" style="text;whiteSpace=wrap;html=1;" parent="1" vertex="1">
          <mxGeometry x="-2220" y="-820" width="900" height="110" as="geometry" />
        </mxCell>
        <mxCell id="ouK6QzMCspJjK9I2fayr-445" value="" style="endArrow=diamondThin;html=1;endSize=12;startArrow=none;startSize=14;startFill=0;rounded=0;endFill=0;entryX=1;entryY=0.5;entryDx=0;entryDy=0;" parent="1" source="ouK6QzMCspJjK9I2fayr-203" target="lPbnV7JKpfbCIfiGn8R--157" edge="1">
          <mxGeometry relative="1" as="geometry">
            <mxPoint x="107" y="-139" as="sourcePoint" />
            <mxPoint x="-40" y="-190" as="targetPoint" />
          </mxGeometry>
        </mxCell>
        <mxCell id="ouK6QzMCspJjK9I2fayr-446" value="0..*" style="edgeLabel;resizable=0;html=1;align=left;verticalAlign=top;" parent="ouK6QzMCspJjK9I2fayr-445" connectable="0" vertex="1">
          <mxGeometry x="-1" relative="1" as="geometry">
            <mxPoint x="8" y="7" as="offset" />
          </mxGeometry>
        </mxCell>
        <mxCell id="ouK6QzMCspJjK9I2fayr-447" value="1..1" style="edgeLabel;resizable=0;html=1;align=right;verticalAlign=top;" parent="ouK6QzMCspJjK9I2fayr-445" connectable="0" vertex="1">
          <mxGeometry x="1" relative="1" as="geometry">
            <mxPoint x="43" y="-20" as="offset" />
          </mxGeometry>
        </mxCell>
        <mxCell id="ouK6QzMCspJjK9I2fayr-449" value="" style="endArrow=diamondThin;html=1;endSize=12;startArrow=none;startSize=14;startFill=0;rounded=0;endFill=1;entryX=1;entryY=0.5;entryDx=0;entryDy=0;" parent="1" source="ouK6QzMCspJjK9I2fayr-143" target="lPbnV7JKpfbCIfiGn8R--158" edge="1">
          <mxGeometry relative="1" as="geometry">
            <mxPoint x="-8" y="-57" as="sourcePoint" />
            <mxPoint x="200" y="-5" as="targetPoint" />
          </mxGeometry>
        </mxCell>
        <mxCell id="ouK6QzMCspJjK9I2fayr-450" value="1..1" style="edgeLabel;resizable=0;html=1;align=left;verticalAlign=top;" parent="ouK6QzMCspJjK9I2fayr-449" connectable="0" vertex="1">
          <mxGeometry x="-1" relative="1" as="geometry">
            <mxPoint x="-40" y="-21" as="offset" />
          </mxGeometry>
        </mxCell>
        <mxCell id="ouK6QzMCspJjK9I2fayr-451" value="1..1" style="edgeLabel;resizable=0;html=1;align=right;verticalAlign=top;" parent="ouK6QzMCspJjK9I2fayr-449" connectable="0" vertex="1">
          <mxGeometry x="1" relative="1" as="geometry">
            <mxPoint x="43" y="4" as="offset" />
          </mxGeometry>
        </mxCell>
        <mxCell id="ouK6QzMCspJjK9I2fayr-455" value="create" style="endArrow=open;html=1;endSize=12;startArrow=none;startSize=14;startFill=0;rounded=0;" parent="1" source="lPbnV7JKpfbCIfiGn8R--153" target="ouK6QzMCspJjK9I2fayr-78" edge="1">
          <mxGeometry relative="1" as="geometry">
            <mxPoint x="254" y="230" as="sourcePoint" />
            <mxPoint x="414" y="230" as="targetPoint" />
            <Array as="points" />
          </mxGeometry>
        </mxCell>
        <mxCell id="ouK6QzMCspJjK9I2fayr-456" value="0..*" style="edgeLabel;resizable=0;html=1;align=left;verticalAlign=top;" parent="ouK6QzMCspJjK9I2fayr-455" connectable="0" vertex="1">
          <mxGeometry x="-1" relative="1" as="geometry">
            <mxPoint x="-37" y="-36" as="offset" />
          </mxGeometry>
        </mxCell>
        <mxCell id="ouK6QzMCspJjK9I2fayr-457" value="1..1" style="edgeLabel;resizable=0;html=1;align=right;verticalAlign=top;" parent="ouK6QzMCspJjK9I2fayr-455" connectable="0" vertex="1">
          <mxGeometry x="1" relative="1" as="geometry">
            <mxPoint x="40" y="3" as="offset" />
          </mxGeometry>
        </mxCell>
        <mxCell id="ouK6QzMCspJjK9I2fayr-480" value="create" style="endArrow=open;html=1;endSize=12;startArrow=none;startSize=14;startFill=0;rounded=0;entryX=0.75;entryY=0;entryDx=0;entryDy=0;" parent="1" source="lPbnV7JKpfbCIfiGn8R--153" target="ouK6QzMCspJjK9I2fayr-98" edge="1">
          <mxGeometry relative="1" as="geometry">
            <mxPoint x="460" y="-160" as="sourcePoint" />
            <mxPoint x="-160" y="-16" as="targetPoint" />
            <Array as="points" />
          </mxGeometry>
        </mxCell>
        <mxCell id="ouK6QzMCspJjK9I2fayr-481" value="0..*" style="edgeLabel;resizable=0;html=1;align=left;verticalAlign=top;" parent="ouK6QzMCspJjK9I2fayr-480" connectable="0" vertex="1">
          <mxGeometry x="-1" relative="1" as="geometry">
            <mxPoint x="-37" y="-13" as="offset" />
          </mxGeometry>
        </mxCell>
        <mxCell id="ouK6QzMCspJjK9I2fayr-482" value="1..1" style="edgeLabel;resizable=0;html=1;align=right;verticalAlign=top;" parent="ouK6QzMCspJjK9I2fayr-480" connectable="0" vertex="1">
          <mxGeometry x="1" relative="1" as="geometry">
            <mxPoint x="45" y="-30" as="offset" />
          </mxGeometry>
        </mxCell>
        <mxCell id="ouK6QzMCspJjK9I2fayr-483" value="create" style="endArrow=open;html=1;endSize=12;startArrow=none;startSize=14;startFill=0;rounded=0;entryX=1;entryY=0.5;entryDx=0;entryDy=0;" parent="1" source="lPbnV7JKpfbCIfiGn8R--153" target="ouK6QzMCspJjK9I2fayr-43" edge="1">
          <mxGeometry relative="1" as="geometry">
            <mxPoint x="517" y="-73" as="sourcePoint" />
            <mxPoint x="-320" y="-89" as="targetPoint" />
          </mxGeometry>
        </mxCell>
        <mxCell id="ouK6QzMCspJjK9I2fayr-484" value="0..*" style="edgeLabel;resizable=0;html=1;align=left;verticalAlign=top;" parent="ouK6QzMCspJjK9I2fayr-483" connectable="0" vertex="1">
          <mxGeometry x="-1" relative="1" as="geometry">
            <mxPoint x="-37" y="-13" as="offset" />
          </mxGeometry>
        </mxCell>
        <mxCell id="ouK6QzMCspJjK9I2fayr-485" value="1..1" style="edgeLabel;resizable=0;html=1;align=right;verticalAlign=top;" parent="ouK6QzMCspJjK9I2fayr-483" connectable="0" vertex="1">
          <mxGeometry x="1" relative="1" as="geometry">
            <mxPoint x="30" y="-9" as="offset" />
          </mxGeometry>
        </mxCell>
        <mxCell id="ouK6QzMCspJjK9I2fayr-486" value="" style="endArrow=diamondThin;html=1;endSize=12;startArrow=none;startSize=14;startFill=0;rounded=0;endFill=0;exitX=-0.013;exitY=0.061;exitDx=0;exitDy=0;exitPerimeter=0;entryX=1;entryY=0.5;entryDx=0;entryDy=0;" parent="1" source="ouK6QzMCspJjK9I2fayr-98" target="ouK6QzMCspJjK9I2fayr-95" edge="1">
          <mxGeometry relative="1" as="geometry">
            <mxPoint x="76" y="85" as="sourcePoint" />
            <mxPoint x="-360" y="-90" as="targetPoint" />
          </mxGeometry>
        </mxCell>
        <mxCell id="ouK6QzMCspJjK9I2fayr-487" value="0..*" style="edgeLabel;resizable=0;html=1;align=left;verticalAlign=top;" parent="ouK6QzMCspJjK9I2fayr-486" connectable="0" vertex="1">
          <mxGeometry x="-1" relative="1" as="geometry">
            <mxPoint x="-26" y="-3" as="offset" />
          </mxGeometry>
        </mxCell>
        <mxCell id="ouK6QzMCspJjK9I2fayr-488" value="1.1" style="edgeLabel;resizable=0;html=1;align=right;verticalAlign=top;" parent="ouK6QzMCspJjK9I2fayr-486" connectable="0" vertex="1">
          <mxGeometry x="1" relative="1" as="geometry">
            <mxPoint x="30" y="18" as="offset" />
          </mxGeometry>
        </mxCell>
        <mxCell id="ouK6QzMCspJjK9I2fayr-496" value="" style="endArrow=open;html=1;endSize=12;startArrow=none;startSize=14;startFill=0;rounded=0;endFill=0;exitX=0;exitY=0.5;exitDx=0;exitDy=0;" parent="1" source="ouK6QzMCspJjK9I2fayr-322" target="ouK6QzMCspJjK9I2fayr-78" edge="1">
          <mxGeometry relative="1" as="geometry">
            <mxPoint x="-490" y="-320" as="sourcePoint" />
            <mxPoint x="-470" y="-160" as="targetPoint" />
          </mxGeometry>
        </mxCell>
        <mxCell id="ouK6QzMCspJjK9I2fayr-497" value="0..*" style="edgeLabel;resizable=0;html=1;align=left;verticalAlign=top;" parent="ouK6QzMCspJjK9I2fayr-496" connectable="0" vertex="1">
          <mxGeometry x="-1" relative="1" as="geometry">
            <mxPoint x="-30" y="-20" as="offset" />
          </mxGeometry>
        </mxCell>
        <mxCell id="ouK6QzMCspJjK9I2fayr-498" value="0..*" style="edgeLabel;resizable=0;html=1;align=right;verticalAlign=top;" parent="ouK6QzMCspJjK9I2fayr-496" connectable="0" vertex="1">
          <mxGeometry x="1" relative="1" as="geometry">
            <mxPoint x="40" y="-23" as="offset" />
          </mxGeometry>
        </mxCell>
        <mxCell id="ouK6QzMCspJjK9I2fayr-499" value="" style="endArrow=open;html=1;endSize=12;startArrow=none;startSize=14;startFill=0;rounded=0;endFill=0;exitX=1;exitY=0.5;exitDx=0;exitDy=0;" parent="1" source="ouK6QzMCspJjK9I2fayr-321" target="ouK6QzMCspJjK9I2fayr-41" edge="1">
          <mxGeometry relative="1" as="geometry">
            <mxPoint x="-230" y="-350" as="sourcePoint" />
            <mxPoint x="-413" y="-179" as="targetPoint" />
          </mxGeometry>
        </mxCell>
        <mxCell id="ouK6QzMCspJjK9I2fayr-500" value="0..*" style="edgeLabel;resizable=0;html=1;align=left;verticalAlign=top;" parent="ouK6QzMCspJjK9I2fayr-499" connectable="0" vertex="1">
          <mxGeometry x="-1" relative="1" as="geometry">
            <mxPoint x="10" y="-17" as="offset" />
          </mxGeometry>
        </mxCell>
        <mxCell id="ouK6QzMCspJjK9I2fayr-501" value="0..*" style="edgeLabel;resizable=0;html=1;align=right;verticalAlign=top;" parent="ouK6QzMCspJjK9I2fayr-499" connectable="0" vertex="1">
          <mxGeometry x="1" relative="1" as="geometry">
            <mxPoint x="-12" y="-20" as="offset" />
          </mxGeometry>
        </mxCell>
        <mxCell id="MyUw59CfePWdErVICxrk-4" value="" style="endArrow=diamondThin;html=1;endSize=12;startArrow=none;startSize=14;startFill=0;rounded=0;endFill=1;exitX=0;exitY=0.5;exitDx=0;exitDy=0;" parent="1" source="ouK6QzMCspJjK9I2fayr-9" target="ouK6QzMCspJjK9I2fayr-41" edge="1">
          <mxGeometry relative="1" as="geometry">
            <mxPoint x="-1103" y="133.5" as="sourcePoint" />
            <mxPoint x="-440" y="100" as="targetPoint" />
          </mxGeometry>
        </mxCell>
        <mxCell id="MyUw59CfePWdErVICxrk-5" value="1..1" style="edgeLabel;resizable=0;html=1;align=left;verticalAlign=top;" parent="MyUw59CfePWdErVICxrk-4" connectable="0" vertex="1">
          <mxGeometry x="-1" relative="1" as="geometry">
            <mxPoint x="-20" y="-1" as="offset" />
          </mxGeometry>
        </mxCell>
        <mxCell id="MyUw59CfePWdErVICxrk-6" value="0..*" style="edgeLabel;resizable=0;html=1;align=right;verticalAlign=top;" parent="MyUw59CfePWdErVICxrk-4" connectable="0" vertex="1">
          <mxGeometry x="1" relative="1" as="geometry">
            <mxPoint y="10" as="offset" />
          </mxGeometry>
        </mxCell>
        <mxCell id="MyUw59CfePWdErVICxrk-8" value="" style="endArrow=diamondThin;html=1;endSize=12;startArrow=none;startSize=14;startFill=0;rounded=0;endFill=1;exitX=0;exitY=0.5;exitDx=0;exitDy=0;" parent="1" source="ouK6QzMCspJjK9I2fayr-29" target="ouK6QzMCspJjK9I2fayr-41" edge="1">
          <mxGeometry relative="1" as="geometry">
            <mxPoint x="-810" y="315.5" as="sourcePoint" />
            <mxPoint x="-121" y="-27.5" as="targetPoint" />
          </mxGeometry>
        </mxCell>
        <mxCell id="MyUw59CfePWdErVICxrk-9" value="1..1" style="edgeLabel;resizable=0;html=1;align=left;verticalAlign=top;" parent="MyUw59CfePWdErVICxrk-8" connectable="0" vertex="1">
          <mxGeometry x="-1" relative="1" as="geometry">
            <mxPoint x="-34" y="-1" as="offset" />
          </mxGeometry>
        </mxCell>
        <mxCell id="MyUw59CfePWdErVICxrk-10" value="0..*" style="edgeLabel;resizable=0;html=1;align=right;verticalAlign=top;" parent="MyUw59CfePWdErVICxrk-8" connectable="0" vertex="1">
          <mxGeometry x="1" relative="1" as="geometry">
            <mxPoint y="10" as="offset" />
          </mxGeometry>
        </mxCell>
        <mxCell id="MyUw59CfePWdErVICxrk-14" value="create" style="endArrow=open;html=1;endSize=12;startArrow=none;startSize=14;startFill=0;rounded=0;" parent="1" source="lPbnV7JKpfbCIfiGn8R--153" target="ouK6QzMCspJjK9I2fayr-26" edge="1">
          <mxGeometry relative="1" as="geometry">
            <mxPoint x="540" y="-156" as="sourcePoint" />
            <mxPoint x="190" y="-180" as="targetPoint" />
          </mxGeometry>
        </mxCell>
        <mxCell id="MyUw59CfePWdErVICxrk-15" value="0..*" style="edgeLabel;resizable=0;html=1;align=left;verticalAlign=top;" parent="MyUw59CfePWdErVICxrk-14" connectable="0" vertex="1">
          <mxGeometry x="-1" relative="1" as="geometry">
            <mxPoint x="-37" y="-4" as="offset" />
          </mxGeometry>
        </mxCell>
        <mxCell id="MyUw59CfePWdErVICxrk-16" value="1..1" style="edgeLabel;resizable=0;html=1;align=right;verticalAlign=top;" parent="MyUw59CfePWdErVICxrk-14" connectable="0" vertex="1">
          <mxGeometry x="1" relative="1" as="geometry">
            <mxPoint x="30" y="-9" as="offset" />
          </mxGeometry>
        </mxCell>
        <mxCell id="MyUw59CfePWdErVICxrk-17" value="create" style="endArrow=open;html=1;endSize=12;startArrow=none;startSize=14;startFill=0;rounded=0;entryX=0.814;entryY=-0.008;entryDx=0;entryDy=0;entryPerimeter=0;" parent="1" source="lPbnV7JKpfbCIfiGn8R--153" target="ouK6QzMCspJjK9I2fayr-5" edge="1">
          <mxGeometry relative="1" as="geometry">
            <mxPoint x="413" y="-163" as="sourcePoint" />
            <mxPoint x="-304" y="451" as="targetPoint" />
          </mxGeometry>
        </mxCell>
        <mxCell id="MyUw59CfePWdErVICxrk-18" value="0..*" style="edgeLabel;resizable=0;html=1;align=left;verticalAlign=top;" parent="MyUw59CfePWdErVICxrk-17" connectable="0" vertex="1">
          <mxGeometry x="-1" relative="1" as="geometry">
            <mxPoint x="-37" y="-4" as="offset" />
          </mxGeometry>
        </mxCell>
        <mxCell id="MyUw59CfePWdErVICxrk-19" value="1..1" style="edgeLabel;resizable=0;html=1;align=right;verticalAlign=top;" parent="MyUw59CfePWdErVICxrk-17" connectable="0" vertex="1">
          <mxGeometry x="1" relative="1" as="geometry">
            <mxPoint x="49" y="-28" as="offset" />
          </mxGeometry>
        </mxCell>
        <mxCell id="EE1-QcaFU-QpzursaLSf-8" value="reserve" style="endArrow=open;html=1;endSize=12;startArrow=none;startSize=14;startFill=0;rounded=0;entryX=1;entryY=0.5;entryDx=0;entryDy=0;" edge="1" parent="1" source="lPbnV7JKpfbCIfiGn8R--153" target="ouK6QzMCspJjK9I2fayr-140">
          <mxGeometry relative="1" as="geometry">
            <mxPoint x="577" y="-6" as="sourcePoint" />
            <mxPoint x="-10" y="-316" as="targetPoint" />
          </mxGeometry>
        </mxCell>
        <mxCell id="EE1-QcaFU-QpzursaLSf-9" value="1..1" style="edgeLabel;resizable=0;html=1;align=left;verticalAlign=top;" connectable="0" vertex="1" parent="EE1-QcaFU-QpzursaLSf-8">
          <mxGeometry x="-1" relative="1" as="geometry">
            <mxPoint x="6" y="-45" as="offset" />
          </mxGeometry>
        </mxCell>
        <mxCell id="EE1-QcaFU-QpzursaLSf-10" value="1..1" style="edgeLabel;resizable=0;html=1;align=right;verticalAlign=top;" connectable="0" vertex="1" parent="EE1-QcaFU-QpzursaLSf-8">
          <mxGeometry x="1" relative="1" as="geometry">
            <mxPoint x="30" y="-9" as="offset" />
          </mxGeometry>
        </mxCell>
        <mxCell id="EE1-QcaFU-QpzursaLSf-11" value="" style="endArrow=diamondThin;html=1;endSize=12;startArrow=none;startSize=14;startFill=0;rounded=0;entryX=0;entryY=0.5;entryDx=0;entryDy=0;endFill=1;" edge="1" parent="1" source="ouK6QzMCspJjK9I2fayr-41" target="ouK6QzMCspJjK9I2fayr-142">
          <mxGeometry relative="1" as="geometry">
            <mxPoint x="684" y="-310" as="sourcePoint" />
            <mxPoint x="580" y="-550" as="targetPoint" />
          </mxGeometry>
        </mxCell>
        <mxCell id="EE1-QcaFU-QpzursaLSf-12" value="0..*" style="edgeLabel;resizable=0;html=1;align=left;verticalAlign=top;" connectable="0" vertex="1" parent="EE1-QcaFU-QpzursaLSf-11">
          <mxGeometry x="-1" relative="1" as="geometry">
            <mxPoint x="10" y="-13" as="offset" />
          </mxGeometry>
        </mxCell>
        <mxCell id="EE1-QcaFU-QpzursaLSf-13" value="1..1" style="edgeLabel;resizable=0;html=1;align=right;verticalAlign=top;" connectable="0" vertex="1" parent="EE1-QcaFU-QpzursaLSf-11">
          <mxGeometry x="1" relative="1" as="geometry">
            <mxPoint x="-30" y="-9" as="offset" />
          </mxGeometry>
        </mxCell>
        <mxCell id="EE1-QcaFU-QpzursaLSf-14" value="" style="ellipse;whiteSpace=wrap;html=1;" vertex="1" parent="1">
          <mxGeometry x="-1510" y="1640" width="120" height="80" as="geometry" />
        </mxCell>
      </root>
    </mxGraphModel>
  </diagram>
</mxfile>
